<svg width="442" height="203" viewBox="0 0 442 203" fill="none" xmlns="http://www.w3.org/2000/svg">
<path opacity="0.3" d="M27.3857 73.2428C36.7927 93.3441 24.793 116.491 10.6681 133.921C5.94054 139.765 0.721411 145.893 0.0660072 153.224C-0.724332 162.192 5.69477 170.435 13.309 175.824C27.1978 185.644 46.1659 188.681 62.6956 183.725C76.9795 179.444 88.9888 169.774 103.398 165.876C127.494 159.347 153.035 170.17 173.671 183.656C188.278 193.19 203.921 204.806 221.53 202.764C233.92 201.328 244.435 193.098 251.572 183.41C255.018 178.733 258.016 173.49 263.032 170.335C266.015 168.456 269.519 167.462 273.022 166.751C305.017 160.282 338.972 176.07 370.543 167.95C391.867 162.479 408.869 146.522 419.442 128.162C430.016 109.803 434.95 89.0721 439.061 68.5331C441.982 53.9438 444.406 38.1828 437.692 24.7652C430.589 10.5589 414.146 1.94662 397.621 0.332678C381.096 -1.28126 364.523 3.17303 349.3 9.45555C330.279 17.3247 311.633 28.3396 290.872 28.3761C276.733 28.4034 263.249 23.2698 249.731 19.3535C227.13 12.8111 203.627 9.56041 180.206 6.56049C157.782 3.68822 135.137 1.01655 112.579 2.71256C96.6175 3.91162 82.5216 9.68351 67.0328 12.3552C56.9367 14.0968 46.7924 12.8111 36.8843 15.729C24.6822 19.3398 12.1331 27.7059 11.4585 40.8818C10.8223 53.4241 22.3979 62.5789 27.3857 73.2428Z" fill="#FFC400"/>
</svg>
