<svg width="351" height="245" viewBox="0 0 351 245" fill="none" xmlns="http://www.w3.org/2000/svg">
<g clip-path="url(#clip0)">
<path d="M35.1555 41.6728C44.644 41.6728 52.336 33.964 52.336 24.4548C52.336 14.9456 44.644 7.23682 35.1555 7.23682C25.667 7.23682 17.9751 14.9456 17.9751 24.4548C17.9751 33.964 25.667 41.6728 35.1555 41.6728Z" fill="#FFC400"/>
<path d="M222.433 74.0459C220.855 69.9238 216.786 60.2352 214.107 62.1574C210.722 64.5869 217.492 75.3199 217.492 75.3199C217.684 77.2903 213.878 81.3901 211.838 83.4345C211.838 83.2716 211.838 83.179 211.838 83.179C211.818 83.2567 211.789 83.3315 211.749 83.4012L211.579 83.3086C211.534 83.472 211.452 83.6227 211.339 83.7493C211.339 83.4716 211.32 83.3086 211.32 83.3086C210.929 84.9715 204.092 87.0789 204.092 87.0789C204.092 87.0789 203.907 87.0789 203.589 87.0789C201.69 87.0789 196.745 86.6492 194.454 82.9753C193.269 80.985 191.753 79.2125 189.971 77.7347C189.361 77.2556 188.62 76.974 187.847 76.9273C181.516 76.5199 176.39 73.3089 175.367 72.6237L175.178 72.4941L175.138 72.6126C174.897 72.2682 174.665 71.9015 174.447 71.5238L174.336 71.3201C175.868 70.5492 177.157 69.368 178.061 67.9076C178.964 66.4472 179.447 64.7645 179.454 63.0462C179.454 62.9833 179.454 62.9166 179.454 62.8537C180.011 61.889 180.304 60.7942 180.304 59.6797V58.5686L181.749 57.2797C182.41 56.6909 183.094 56.0687 183.43 55.2576C183.565 54.9294 183.626 54.5752 183.608 54.2206C183.64 53.9168 183.595 53.6098 183.476 53.3285C183.357 53.0473 183.168 52.8011 182.928 52.6132C181.819 51.8466 179.971 52.6132 179.169 51.5466C178.8 51.0651 178.866 50.4096 178.685 49.8429C178.316 48.6911 176.985 48.0689 175.755 48.0504C174.524 48.0319 173.345 48.48 172.163 48.817C169.678 49.5239 167.085 49.7675 164.513 49.5355C163.817 49.4114 163.103 49.4367 162.418 49.6096C161.999 49.783 161.627 50.0527 161.332 50.397C161.036 50.7412 160.826 51.1502 160.718 51.591C160.626 51.9222 160.572 52.2626 160.555 52.6058C159.524 53.7712 158.954 55.2741 158.951 56.8316V59.6797C158.954 61.2001 159.497 62.6698 160.485 63.824C160.602 65.1641 161.008 66.4626 161.676 67.6293C162.344 68.7959 163.258 69.8026 164.354 70.5793C164.354 70.6534 164.354 70.7287 164.354 70.8053L164.402 70.8349C164.342 71.7178 164.206 72.5939 163.996 73.4533V73.2645C163.996 73.2645 158.822 76.0236 153.279 76.0903H152.669C151.575 76.0534 150.512 76.453 149.713 77.2014C148.072 78.7495 145.197 81.1976 143.43 81.1976C143.061 81.1976 133.733 83.0234 132.188 83.3271L129.302 80.4939L129.214 80.6605L129.044 80.4939C128.728 80.5183 128.414 80.5641 128.105 80.6309C126.627 78.8754 123.67 74.794 122.987 69.3164C122.987 69.3164 129.369 62.0315 127.022 55.2428C125.019 49.4578 119.502 61.8574 117.935 65.5943C117.661 66.2464 117.627 66.9749 117.839 67.6498L123.024 84.3975C122.53 85.6952 122.388 87.101 122.613 88.4714H122.554L126.331 93.3268C126.331 93.3268 129.173 94.5416 133.619 94.5194C136.877 94.5247 140.106 93.9037 143.131 92.6898H144.007L143.84 92.7528H148.338L151.198 101.423C151.102 102.212 149.72 113.223 148.611 115.685C148.282 116.508 148.134 117.392 148.175 118.278C148.233 119.979 148.51 121.666 148.999 123.296L151.505 123.204L151.409 123.4C149.288 127.759 145.744 135.526 143.648 142.785L140.001 150.192L142.735 183.413H142.846L143.057 183.446C143.353 183.491 143.796 183.557 144.38 183.632L144.166 184.002L138.138 194.002C138.138 194.002 133.84 202.82 143.349 201.157C143.349 201.157 146.863 200.135 148.297 194.12L154.55 188.242C154.55 188.242 154.842 184.339 153.072 182.78C152.961 180.976 152.68 175.71 153.112 174.443C153.633 172.91 150.895 155.277 150.895 155.277C150.895 155.277 160.792 134.703 166.786 134.192C167.225 134.161 167.666 134.219 168.083 134.363C173.009 135.97 178.977 147.907 180.733 151.621L180.814 151.792V151.825L180.881 151.97V152.01L180.94 152.136V152.169L180.991 152.284V152.31L181.036 152.403V152.44L181.069 152.51V152.54L181.091 152.592V152.621V152.655L181.11 152.699L181.889 175.828L181.967 175.869H182.004L181.937 176.347L181.597 178.735C181.597 178.735 185.895 187.809 185.633 188.957C185.371 190.105 188.497 194.709 192.924 193.431C197.351 192.153 194.717 184.95 194.717 184.95L190.452 176.143L190.263 175.75C190.688 175.489 191.089 175.19 191.461 174.858C191.461 174.858 190.16 165.402 191.461 163.358C192.762 161.314 193.153 151.984 193.153 151.984C193.153 151.984 192.241 145.596 190.677 142.785L184.129 119.359C186.091 121.189 187.617 121.904 188.892 121.856H189.103C189.663 121.866 190.217 121.728 190.707 121.456C190.97 121.307 191.218 121.132 191.446 120.933C191.49 120.896 191.53 120.855 191.568 120.811C193.39 119.278 189.484 113.271 187.27 109.7C185.138 106.256 188.076 96.8971 188.297 96.2008C188.495 96.0557 188.706 95.9316 188.929 95.8304C189.388 95.6336 189.879 95.5268 190.378 95.5156C192.499 95.5897 195.108 96.8119 198.338 97.4267C200.583 97.8093 202.857 97.9866 205.134 97.9563H205.267C206.173 97.9563 206.993 97.9378 207.658 97.9119C208.265 97.8879 208.859 97.7272 209.395 97.4415C209.855 97.1729 210.271 96.8357 210.629 96.4415L216.298 90.0232L216.151 90.0936C216.425 89.3657 216.425 88.5623 216.151 87.8344L222.141 77.4643C222.443 76.9534 222.627 76.3805 222.677 75.7886C222.728 75.1967 222.644 74.601 222.433 74.0459Z" fill="url(#paint0_linear)"/>
<path d="M155.13 187.365L149.095 193.161C147.713 199.087 144.317 200.09 144.317 200.09C135.141 201.727 139.287 193.053 139.287 193.053L145.108 183.183L145.825 181.965C145.825 181.965 149.975 180.706 152.739 181.461C153.088 181.557 153.411 181.732 153.681 181.972C155.415 183.48 155.13 187.365 155.13 187.365Z" fill="#444176"/>
<path d="M192.34 192.531C188.065 193.79 185.049 189.257 185.319 188.12C185.589 186.983 181.413 178.054 181.413 178.054L181.738 175.698L182.041 173.517L189.062 174.021L189.724 175.413L193.841 184.098C193.841 184.098 196.616 191.272 192.34 192.531Z" fill="#444176"/>
<path opacity="0.1" d="M153.748 182.957C153.087 184.094 147.725 183.52 145.112 183.165L145.829 181.946C145.829 181.946 149.979 180.687 152.743 181.443C153.092 181.539 153.414 181.713 153.685 181.954C153.722 182.569 153.748 182.957 153.748 182.957Z" fill="black"/>
<path opacity="0.1" d="M189.731 175.406C186.136 177.806 182.307 175.991 181.73 175.691L182.034 173.51L189.055 174.013L189.731 175.406Z" fill="black"/>
<path d="M190.707 162.799C189.451 164.814 190.707 174.139 190.707 174.139C186.557 177.921 181.657 175.147 181.657 175.147L180.918 152.344C180.918 152.344 172.747 133.57 166.963 134.074C161.18 134.577 151.627 154.862 151.627 154.862C151.627 154.862 154.266 172.247 153.763 173.75C153.26 175.254 153.763 182.569 153.763 182.569C152.883 184.08 143.707 182.569 143.707 182.569L141.069 149.81L144.572 142.499C146.586 135.344 150.008 127.685 152.056 123.389C153.072 121.252 153.752 119.948 153.752 119.948L160.441 118.552L182.152 114.041L189.953 142.499C191.461 145.27 192.34 151.569 192.34 151.569C192.34 151.569 191.964 160.784 190.707 162.799Z" fill="#565387"/>
<g opacity="0.1">
<path opacity="0.1" d="M183.667 175.147L182.928 152.344C182.928 152.344 174.757 133.57 168.974 134.074C168.715 134.099 168.461 134.156 168.216 134.244C173.856 136.122 180.918 152.344 180.918 152.344L181.657 175.147C183.199 175.934 184.937 176.252 186.657 176.061C185.614 175.936 184.602 175.626 183.667 175.147Z" fill="black"/>
<path opacity="0.1" d="M145.703 182.58L143.065 149.821L146.583 142.499C148.597 135.344 152.019 127.685 154.066 123.389C155.082 121.252 155.762 119.948 155.762 119.948L162.451 118.552L182.27 114.422L182.163 114.026L160.441 118.552L153.752 119.948C153.752 119.948 153.072 121.252 152.056 123.389C150.001 127.685 146.586 135.359 144.572 142.499L141.054 149.807L143.693 182.565C143.693 182.565 148.704 183.391 151.675 183.209C149.675 183.1 147.682 182.89 145.703 182.58Z" fill="black"/>
</g>
<path d="M130.415 81.0975C130.415 81.0975 123.249 81.4679 124.254 89.0343L126.265 89.2862L129.28 86.0122L130.788 83.2419V82.6123L130.415 81.0975Z" fill="#CED2DF"/>
<path opacity="0.1" d="M130.415 81.0975C130.415 81.0975 123.249 81.4679 124.254 89.0343L126.265 89.2862L129.28 86.0122L130.788 83.2419V82.6123L130.415 81.0975Z" fill="black"/>
<path d="M210.131 83.8678C210.131 83.8678 216.043 87.0159 214.532 90.6713L212.647 91.412L210.134 90.0269L209.765 86.7529L210.016 84.4863L210.131 83.8678Z" fill="#CED2DF"/>
<path opacity="0.1" d="M210.131 83.8678C210.131 83.8678 216.043 87.0159 214.532 90.6713L212.647 91.412L210.134 90.0269L209.765 86.7529L210.016 84.4863L210.131 83.8678Z" fill="black"/>
<path d="M172.167 51.3614H167.137C162.833 51.3614 159.343 54.8585 159.343 59.1723C159.343 63.4861 162.833 66.9832 167.137 66.9832H172.167C176.471 66.9832 179.961 63.4861 179.961 59.1723C179.961 54.8585 176.471 51.3614 172.167 51.3614Z" fill="#88455E"/>
<path d="M130.367 82.1679L125.965 89.2047L125.596 87.9529L119.617 68.4275C119.412 67.7619 119.445 67.0458 119.709 66.4017C121.22 62.7203 126.549 50.4762 128.482 56.1983C130.744 62.8648 124.583 70.0571 124.583 70.0571C125.286 75.894 128.556 80.1235 129.842 81.5901C130.167 81.9716 130.367 82.1679 130.367 82.1679Z" fill="#EC8C9C"/>
<path d="M209.188 85.19C209.188 85.19 216.103 78.6384 215.84 75.994C215.84 75.994 209.303 65.4128 212.574 63.0314C215.16 61.1352 219.089 70.6904 220.611 74.7533C220.813 75.2945 220.893 75.8732 220.848 76.449C220.803 77.0248 220.632 77.5837 220.349 78.0865L212.086 92.749L209.188 85.19Z" fill="#EC8C9C"/>
<path d="M164.432 66.9239C164.432 66.9239 165.688 74.9866 162.045 78.0125C158.401 81.0383 172.481 81.0198 172.481 81.0198L177.51 76.3569C177.51 76.3569 171.727 70.9386 173.486 66.9091L164.432 66.9239Z" fill="#EC8C9C"/>
<path opacity="0.1" d="M164.181 76.1199C164.181 76.1199 169.587 80.1531 174.99 75.6162L183.789 93.886L183.286 116.185C183.286 116.185 165.056 125.633 157.514 119.841C149.971 114.048 156.257 111.023 156.257 111.023L154.498 93.8897L156.383 82.8012C156.383 82.8012 159.776 77.5088 160.031 77.5088C160.286 77.5088 164.181 76.1199 164.181 76.1199Z" fill="black"/>
<path d="M164.181 75.8681C164.181 75.8681 169.587 79.9087 174.994 75.3644L183.793 93.6342L183.29 115.934C183.29 115.934 165.06 125.381 157.518 119.589C149.975 113.797 156.261 110.771 156.261 110.771L154.502 93.6379L156.387 82.5494C156.387 82.5494 159.779 77.2569 160.034 77.2569C160.289 77.2569 164.181 75.8681 164.181 75.8681Z" fill="#EBF1F6"/>
<path opacity="0.1" d="M164.18 73.9829C164.18 73.9829 159.055 76.9088 153.489 76.7643C152.967 76.748 152.447 76.8358 151.959 77.0227C151.471 77.2097 151.025 77.492 150.647 77.8532C149.062 79.3791 146.287 81.7938 144.568 81.7938C144.199 81.7938 133.504 83.9345 133.504 83.9345L130.677 81.1012C130.677 81.1012 126.464 89.3528 124.454 88.9751L128.101 93.7638C128.101 93.7638 135.015 96.7859 144.066 93.1342H149.347L152.111 101.701C152.111 101.701 150.729 113.293 149.598 115.811C148.467 118.33 149.967 123.244 149.967 123.244L159.897 122.874C159.897 122.874 160.4 117.959 161.154 117.319C161.908 116.678 158.515 95.0193 158.515 95.0193C158.515 95.0193 156.254 82.7975 164.55 78.3902L164.18 73.9829Z" fill="black"/>
<path opacity="0.1" d="M160.437 118.567C160.071 120.061 159.811 121.58 159.657 123.111L152.056 123.4C153.072 121.263 153.752 119.959 153.752 119.959L160.437 118.567Z" fill="black"/>
<path opacity="0.1" d="M130.367 82.1679L125.965 89.2047L125.596 87.9529C127.211 86.3455 129.103 82.9864 129.857 81.5864C130.167 81.9716 130.367 82.1679 130.367 82.1679Z" fill="black"/>
<path d="M164.181 73.9829C164.181 73.9829 158.8 76.9088 153.238 76.7643C152.716 76.748 152.196 76.8358 151.708 77.0227C151.22 77.2097 150.774 77.492 150.396 77.8532C148.811 79.3791 146.036 81.7938 144.317 81.7938C143.948 81.7938 133.253 83.9345 133.253 83.9345L130.415 81.0975C130.415 81.0975 126.202 89.3491 124.191 88.9714L127.839 93.7601C127.839 93.7601 134.753 96.7823 143.803 93.1305H149.084L151.849 101.693C151.849 101.693 150.467 113.285 149.336 115.804C148.205 118.322 149.705 123.237 149.705 123.237L159.635 122.867C159.635 122.867 160.138 117.952 160.892 117.311C161.645 116.671 158.253 95.0119 158.253 95.0119C158.253 95.0119 155.991 82.7901 164.288 78.3828L164.181 73.9829Z" fill="#CED2DF"/>
<path opacity="0.1" d="M174.994 73.22C174.994 73.22 180.123 77.1384 186.971 77.5902C187.72 77.6374 188.437 77.9155 189.022 78.3865C190.749 79.8548 192.213 81.6085 193.35 83.5715C196.114 88.1084 202.902 87.6048 202.902 87.6048C202.902 87.6048 209.503 85.527 209.88 83.9012C209.88 83.9012 210.068 92.7898 214.218 90.6417L208.76 96.9452C208.416 97.3434 207.994 97.6668 207.521 97.8955C207.047 98.1241 206.532 98.2532 206.007 98.2748C203.956 98.3563 200.393 98.3822 197.385 97.797C192.858 96.9156 189.591 94.7749 187.204 96.6637C187.204 96.6637 184.063 106.489 186.199 110.019C188.335 113.548 192.112 119.467 190.349 120.982C188.586 122.496 186.45 122.367 182.932 118.715C179.414 115.063 179.033 108.889 179.033 108.889L179.913 93.0157C179.913 93.0157 176.52 81.0457 173.261 78.6532L174.994 73.22Z" fill="black"/>
<path opacity="0.1" d="M214.717 90.4824L209.244 96.8119C208.88 97.2318 208.43 97.5678 207.925 97.797C207.475 98.0003 206.991 98.1147 206.498 98.1341C204.447 98.2192 200.885 98.2452 197.877 97.6563C193.641 96.8304 190.508 94.9045 188.165 96.2045C187.999 96.2962 187.84 96.4015 187.692 96.5193C187.692 96.5193 184.551 106.345 186.687 109.874C188.823 113.404 192.599 119.322 190.837 120.837C190.542 121.097 190.21 121.313 189.854 121.478C188.272 122.193 186.31 121.574 183.42 118.57C179.902 114.915 179.521 108.745 179.521 108.745L180.4 92.8713C180.4 92.8713 177.008 80.9013 173.749 78.5087L175.186 73.3422C176.176 74.0163 181.121 77.1828 187.233 77.5865C187.983 77.6337 188.699 77.9118 189.284 78.3828C191.011 79.8513 192.475 81.6049 193.612 83.5678C196.376 88.1047 203.165 87.601 203.165 87.601C204.792 87.0807 206.382 86.4471 207.921 85.7048C208.886 85.2307 209.735 84.7122 210.138 84.2234C210.251 84.0957 210.334 83.9436 210.379 83.7789C210.379 83.7789 210.571 92.6231 214.717 90.4824Z" fill="black"/>
<path d="M214.465 90.6084L208.996 96.9452C208.695 97.293 208.335 97.584 207.932 97.8044C207.415 98.0855 206.841 98.2439 206.254 98.2674C204.203 98.3526 200.641 98.3785 197.632 97.7896C193.549 96.9934 190.485 95.1712 188.176 96.2119C187.912 96.327 187.663 96.4751 187.436 96.6526C187.436 96.6526 184.295 106.478 186.431 110.008C188.567 113.537 192.344 119.456 190.581 120.97C190.353 121.167 190.106 121.34 189.842 121.485C188.216 122.385 186.206 121.856 183.157 118.704C179.639 115.048 179.258 108.878 179.258 108.878L180.138 93.0046C180.138 93.0046 176.745 81.0346 173.486 78.6421L174.994 73.2237L175.175 73.3496C176.165 74.0237 181.11 77.1903 187.222 77.5939C187.971 77.6411 188.688 77.9192 189.273 78.3902C191 79.8587 192.463 81.6123 193.601 83.5752C196.365 88.1121 203.153 87.6085 203.153 87.6085C204.781 87.0881 206.37 86.4545 207.91 85.7122C209.051 85.1271 209.983 84.4863 210.127 83.9012C210.127 83.9012 210.127 84.016 210.127 84.2197C210.238 85.7493 210.792 92.5009 214.465 90.6084Z" fill="#CED2DF"/>
<path opacity="0.1" d="M173.597 67.1128H164.358C164.561 68.5849 164.619 70.0735 164.532 71.5571C165.942 72.5517 167.596 73.1427 169.316 73.2666C171.036 73.3906 172.757 73.0429 174.295 72.2608C173.408 70.6164 172.869 68.7498 173.597 67.1128Z" fill="black"/>
<path d="M169.964 73.0941C175.032 73.0941 179.14 68.9769 179.14 63.8981C179.14 58.8192 175.032 54.702 169.964 54.702C164.896 54.702 160.788 58.8192 160.788 63.8981C160.788 68.9769 164.896 73.0941 169.964 73.0941Z" fill="#EC8C9C"/>
<path opacity="0.1" d="M168.057 62.2611C169.081 62.1389 170.105 61.7759 171.114 61.9796C172.03 62.1648 172.81 62.7981 173.726 62.9907C175.493 63.361 177.134 62.0574 178.468 60.8426L181.35 58.2131C181.989 57.6316 182.647 57.0205 182.976 56.2205C183.305 55.4205 183.19 54.3687 182.488 53.865C181.435 53.1243 179.621 53.865 178.859 52.8132C178.516 52.3392 178.567 51.7021 178.39 51.1355C178.02 50.0022 176.749 49.3837 175.559 49.3689C174.369 49.3541 173.231 49.7911 172.093 50.1096C169.695 50.8067 167.188 51.0466 164.702 50.817C164.031 50.6939 163.341 50.7179 162.68 50.8874C162.274 51.0614 161.913 51.3286 161.628 51.6676C161.343 52.0066 161.142 52.4079 161.04 52.8391C160.47 54.8539 161.442 58.1019 162.418 59.9056C163.394 61.7092 166.11 62.5018 168.057 62.2611Z" fill="black"/>
<path d="M168.057 62.0092C169.081 61.887 170.105 61.5241 171.114 61.7278C172.03 61.9129 172.81 62.5463 173.726 62.7388C175.493 63.1092 177.134 61.8055 178.468 60.5908L181.35 57.9612C181.989 57.3797 182.647 56.7686 182.976 55.9687C183.305 55.1687 183.19 54.1169 182.488 53.6132C181.435 52.8725 179.621 53.6132 178.859 52.5614C178.516 52.0873 178.567 51.4503 178.39 50.8836C178.02 49.7503 176.749 49.1318 175.559 49.117C174.369 49.1022 173.231 49.5392 172.093 49.8577C169.695 50.5548 167.188 50.7948 164.702 50.5651C164.031 50.442 163.341 50.466 162.68 50.6355C162.274 50.8095 161.913 51.0768 161.628 51.4157C161.343 51.7547 161.142 52.156 161.04 52.5873C160.47 54.602 161.442 57.8501 162.418 59.6537C163.394 61.4574 166.11 62.2315 168.057 62.0092Z" fill="#88455E"/>
<path opacity="0.1" d="M152.052 101.76C152.052 101.76 154.062 102.012 155.067 103.271C156.072 104.53 157.832 104.908 157.832 104.908" fill="black"/>
<path opacity="0.1" d="M133.948 85.1271C133.948 85.1271 135.588 88.7973 134.576 89.1677C133.563 89.538 133.948 92.1898 133.948 92.1898" fill="black"/>
<g opacity="0.1">
<path opacity="0.1" d="M134.513 83.8678C134.513 83.8678 145.197 81.7272 145.566 81.7272C147.288 81.7272 150.06 79.3124 151.645 77.7865C152.128 77.3236 152.721 76.9932 153.367 76.8273H153.231C152.709 76.8109 152.189 76.8988 151.701 77.0857C151.213 77.2726 150.767 77.5549 150.389 77.9162C148.804 79.442 146.028 81.8568 144.31 81.8568C144.01 81.8568 137.174 83.216 134.398 83.7678L134.513 83.8678Z" fill="black"/>
<path opacity="0.1" d="M164.196 74.5126V74.0422C161.625 75.3555 158.86 76.2423 156.006 76.668C158.838 76.4155 161.606 75.6868 164.196 74.5126Z" fill="black"/>
<path opacity="0.1" d="M150.984 123.174C150.984 123.174 149.476 118.259 150.615 115.741C151.753 113.222 153.127 101.63 153.127 101.63L150.371 93.0638H145.075L144.753 93.1898H149.096L151.849 101.76C151.849 101.76 150.467 113.352 149.336 115.871C148.205 118.389 149.705 123.304 149.705 123.304L159.635 122.933V122.856L150.984 123.174Z" fill="black"/>
</g>
<g opacity="0.1">
<path opacity="0.1" d="M190.707 118.956C190.479 119.152 190.231 119.325 189.968 119.47C188.342 120.37 186.331 119.841 183.283 116.689C180.489 113.789 179.676 109.282 179.458 107.575L179.384 108.878C179.384 108.878 179.753 115.052 183.283 118.704C186.331 121.867 188.342 122.385 189.968 121.485C190.231 121.34 190.479 121.167 190.707 120.97C191.235 120.515 191.265 119.659 190.988 118.593C190.919 118.731 190.824 118.855 190.707 118.956Z" fill="black"/>
<path opacity="0.1" d="M212.688 90.7972L209.129 94.9193C208.828 95.2671 208.468 95.5581 208.065 95.7786C207.548 96.0597 206.974 96.2181 206.387 96.2415C204.336 96.3267 200.774 96.3526 197.766 95.7638C193.682 94.9675 190.618 93.1453 188.309 94.186C188.045 94.3012 187.796 94.4492 187.57 94.6267C187.57 94.6267 185.541 100.975 185.851 105.297C186.091 101.256 187.57 96.6415 187.57 96.6415C187.796 96.464 188.045 96.3159 188.309 96.2008C190.622 95.1601 193.682 96.9822 197.766 97.7785C200.774 98.3637 204.332 98.3378 206.387 98.2563C206.974 98.2328 207.548 98.0744 208.065 97.7933C208.467 97.5762 208.828 97.289 209.129 96.9452L214.602 90.6158C214.319 90.7925 213.999 90.9009 213.666 90.9324C213.334 90.9639 212.999 90.9176 212.688 90.7972Z" fill="black"/>
</g>
<path d="M51.9736 136.163C52.0176 136.205 52.0741 136.233 52.1349 136.241C52.1956 136.249 52.2572 136.237 52.3108 136.207C52.1968 136.209 52.0832 136.194 51.9736 136.163Z" fill="url(#paint1_linear)"/>
<path d="M89.635 74.8125C88.9698 74.62 88.02 74.3052 86.8781 73.9052C88.0648 72.3751 88.9331 70.6221 89.4317 68.7498L89.3356 68.7868C89.3689 68.672 89.4021 68.5609 89.4317 68.4424C87.2403 69.3349 84.816 67.8239 83.2713 65.8832C81.7266 63.9425 80.6844 61.5352 78.9919 59.75C78.2865 59.0399 77.528 58.3849 76.7228 57.7908C76.2239 57.4205 75.6881 57.002 75.0783 56.9835C74.0916 56.9538 73.3193 57.9242 72.3695 58.2093C71.7446 58.3503 71.0939 58.3261 70.4811 58.139C68.031 57.576 65.6769 56.5353 63.1751 56.2613C61.8365 56.0956 60.4779 56.2491 59.2098 56.7094C57.9533 57.1872 57.3805 58.139 56.3642 58.9019C55.2556 59.7204 53.09 59.7019 51.8003 59.8463C50.2352 60.0255 48.6593 60.0911 47.0848 60.0426C46.18 59.964 45.2689 59.9976 44.3723 60.1426C42.4987 60.5537 40.9946 62.0463 39.5903 63.4759C39.207 63.7993 38.9311 64.2321 38.7995 64.7166C38.7814 64.853 38.7814 64.9912 38.7995 65.1277C38.7853 65.501 38.8495 65.8733 38.9879 66.2202C39.4202 67.5058 40.031 68.7239 40.8024 69.8386C41.3752 70.6608 42.0441 71.4349 42.3693 72.4089C42.5235 72.8878 42.6045 73.3872 42.6095 73.8904C42.5936 74.4246 42.538 74.9569 42.4432 75.4829C42.1953 76.937 41.7875 78.3592 41.2274 79.7235C40.8797 80.4238 40.6404 81.1731 40.5179 81.9457C40.5073 82.1035 40.5073 82.2619 40.5179 82.4197C40.4255 84.8641 42.8867 86.6233 43.3634 89.0529C43.4026 89.2544 43.4261 89.4587 43.4336 89.6639C43.3819 91.1787 42.5208 92.6601 41.2496 93.249C41.3604 93.2935 41.475 93.3305 41.5896 93.3675C41.4802 93.4363 41.3667 93.4982 41.2496 93.5527C41.4824 93.6416 41.7189 93.7194 41.9591 93.7823C40.5143 95.0435 39.3 96.5475 38.3708 98.2266C34.0951 106.204 5.13701 121.83 5.13701 121.83L5.56569 122.074L5.21831 122.3C2.71276 123.97 -3.16681 128.841 2.14734 135C2.14734 135 6.2974 128.437 9.20577 125.641C9.33512 125.515 9.46446 125.4 9.57532 125.292C9.63922 125.391 9.68206 125.502 9.70114 125.618C9.72022 125.734 9.71513 125.853 9.68619 125.967L28.7255 115.245C28.7255 115.245 35.492 110.497 37.3804 109.426C38.7095 108.596 40.156 107.972 41.6709 107.575L41.4491 107.667C42.161 107.471 42.8949 107.366 43.6332 107.356C47.0035 107.408 50.6547 109.882 51.8557 119.678C53.467 132.796 52.7205 135.163 52.2031 135.485C52.1393 135.48 52.0762 135.469 52.0146 135.451C52.0306 135.465 52.0479 135.478 52.0664 135.488C51.9963 135.484 51.9269 135.471 51.8594 135.451C51.8966 135.486 51.942 135.51 51.9912 135.521C52.0403 135.533 52.0917 135.532 52.1403 135.518C52.1752 135.529 52.212 135.532 52.2483 135.527C52.2846 135.523 52.3195 135.511 52.3509 135.492C52.4358 135.497 52.521 135.497 52.6059 135.492C52.6059 135.613 52.5973 135.737 52.58 135.863C52.5542 135.863 52.4285 135.933 52.58 135.94C52.5394 136.681 52.5431 137.485 52.58 138.325C50.906 138.418 49.2319 138.518 47.7759 138.607L47.9052 137.914L47.9643 137.603C49.2504 137.5 50.4699 137.122 50.614 136.077C50.9281 133.781 47.7833 132.555 45.1077 132.403C42.4321 132.252 26.3862 133.322 26.3862 133.322C26.3862 133.322 23.9804 136.444 31.6117 137.396C31.8383 137.514 32.0736 137.638 32.3175 137.766C35.3072 139.474 39.3612 142.618 41.305 144.166L41.5748 144.381L40.7026 145.092C45.4218 146.162 49.9858 164.236 52.5024 172.498C55.0191 180.761 60.5254 180.461 65.0894 179.235C69.3651 178.087 69.8935 165.643 69.9637 164.08V163.921L77.5691 173.335L78.1456 174.05C78.3673 174.166 78.5866 174.275 78.8034 174.376C84.561 177.121 90.921 171.858 89.1139 165.858C87.2846 159.81 84.4464 150.866 82.5544 147.084C80.969 143.918 78.9217 138.659 77.68 135.366C77.8412 135.301 77.998 135.226 78.1493 135.14C78.1493 135.14 78.1197 134.992 78.0717 134.722L78.1493 134.681C78.1493 134.681 76.3015 125.155 76.2202 118.385C76.2202 118.267 76.2202 118.143 76.2202 118.015C76.2202 117.941 76.2202 117.867 76.2202 117.796C77.595 117.482 78.4671 117.359 78.4671 117.359L78.493 117.063L78.3341 117.096L79.0991 108.323C79.0991 108.323 81.9076 102.334 79.7569 99.8414C79.103 99.1125 78.6664 98.2142 78.4967 97.2489C78.1271 94.9564 78.4967 91.1306 83.5041 87.9529C91.2129 83.053 94.2211 79.0643 94.2211 79.0643C94.2211 79.0643 94.3541 76.2051 89.635 74.8125ZM74.3244 80.9012V76.8458C75.7546 76.7755 77.2143 76.9421 78.6519 76.8458C79.3576 76.7964 80.0568 76.6786 80.7398 76.494L81.0872 76.7347C78.984 78.356 76.7175 79.7524 74.3244 80.9012ZM52.4655 144.47C53.0309 144.862 53.6 145.27 54.158 145.681C54.5054 147.681 54.8121 149.092 54.8343 149.192C54.1965 147.546 53.4033 145.965 52.4655 144.47Z" fill="url(#paint2_linear)"/>
<path d="M64.6826 141.136L64.35 142.948L64.095 144.333L63.6294 146.866L59.1134 150.033C59.1134 150.033 58.7069 149.684 58.0344 149.133C56.1866 147.607 52.2952 144.51 49.4386 142.836C48.7045 142.367 47.9101 141.999 47.0771 141.744L64.6826 141.136Z" fill="#FFBDC6"/>
<path opacity="0.1" d="M64.6824 141.136L64.3498 142.948C63.3544 143.003 62.3559 142.952 61.3712 142.796L50.8353 142.948C50.3364 142.918 49.8707 142.877 49.4347 142.833C48.7006 142.363 47.9062 141.995 47.0732 141.74L64.6824 141.136Z" fill="black"/>
<path d="M61.3712 142.499C61.3712 142.499 66.641 143.403 66.9404 141.14C67.2397 138.877 64.2316 137.685 61.678 137.514C59.1244 137.344 43.7621 138.425 43.7621 138.425C43.7621 138.425 41.0533 142.044 50.8353 142.648L61.3712 142.499Z" fill="#7679B4"/>
<path opacity="0.1" d="M64.6826 141.136L64.35 142.948L64.095 144.333L63.6294 146.866L59.1134 150.033C59.1134 150.033 58.7069 149.684 58.0344 149.133C56.1866 147.607 52.2952 144.51 49.4386 142.836C48.7045 142.367 47.9101 141.999 47.0771 141.744L64.6826 141.136Z" fill="black"/>
<path opacity="0.1" d="M64.6824 141.136L64.3498 142.948C63.3544 143.003 62.3559 142.952 61.3712 142.796L50.8353 142.948C50.3364 142.918 49.8707 142.877 49.4347 142.833C48.7006 142.363 47.9062 141.995 47.0732 141.74L64.6824 141.136Z" fill="black"/>
<path opacity="0.1" d="M61.3712 142.499C61.3712 142.499 66.641 143.403 66.9404 141.14C67.2397 138.877 64.2316 137.685 61.678 137.514C59.1244 137.344 43.7621 138.425 43.7621 138.425C43.7621 138.425 41.0533 142.044 50.8353 142.648L61.3712 142.499Z" fill="black"/>
<path d="M72.883 68.1276H45.3403V100.86H72.883V68.1276Z" fill="#A66477"/>
<path opacity="0.1" d="M72.883 68.1276H45.3403V100.86H72.883V68.1276Z" fill="black"/>
<path d="M13.0563 124.167C12.6018 124.281 12.0253 124.718 11.3785 125.355C8.59582 128.111 4.62683 134.574 4.62683 134.574C-0.458196 128.507 5.17007 123.711 7.58325 122.063C8.16714 121.663 8.55886 121.448 8.55886 121.448L13.0563 124.167Z" fill="#FFBDC6"/>
<path d="M64.3832 78.4606C64.3832 78.4606 65.7395 87.964 70.4032 90.2269C75.0669 92.4898 64.3832 96.7119 64.3832 96.7119L49.7822 91.2824C49.7822 91.2824 58.0602 88.5677 56.4046 80.5716L64.3832 78.4606Z" fill="#FFBDC6"/>
<path d="M48.7436 135.629L48.411 137.44L48.156 138.825L47.6904 141.359L43.1745 144.525C43.1745 144.525 42.768 144.177 42.0954 143.625C40.2476 142.099 36.3563 139.003 33.4996 137.329C32.7655 136.859 31.9711 136.492 31.1382 136.237L48.7436 135.629Z" fill="#FFBDC6"/>
<path opacity="0.1" d="M48.7439 135.629L48.4113 137.44C47.4159 137.496 46.4174 137.445 45.4327 137.288L34.8968 137.44C34.3979 137.411 33.9323 137.37 33.4962 137.325C32.7621 136.856 31.9677 136.488 31.1348 136.233L48.7439 135.629Z" fill="black"/>
<path d="M45.4179 136.988C45.4179 136.988 50.6877 137.892 50.987 135.629C51.2864 133.366 48.2782 132.159 45.7172 132.011C43.1562 131.863 27.8051 132.914 27.8051 132.914C27.8051 132.914 25.0963 136.533 34.8783 137.137L45.4179 136.988Z" fill="#7679B4"/>
<path opacity="0.1" d="M48.1412 138.829L47.6756 141.362L43.1597 144.529C43.1597 144.529 42.7532 144.181 42.0806 143.629L48.0525 138.722L48.1412 138.829Z" fill="black"/>
<path d="M77.9385 173.361C77.7316 173.26 77.5222 173.153 77.3103 173.039L76.7597 172.336L69.4869 163.077V163.24C69.4389 164.777 68.9141 177.035 64.8269 178.165C60.4625 179.372 55.1927 179.672 52.7869 171.528C50.3811 163.384 46.013 145.584 41.4971 144.529L48.1933 139.022C48.1933 139.022 52.628 144.207 54.4388 149.199C54.3722 148.881 51.3087 134.544 53.8364 132.011H75.8099C75.8099 132.011 79.195 141.692 81.5306 146.492C83.3414 150.218 86.0576 159.025 87.813 164.984C89.5499 170.88 83.4818 176.065 77.9385 173.361Z" fill="#7679B4"/>
<path opacity="0.1" d="M77.3248 134.722C73.936 136.733 59.0357 135.914 54.1798 135.588L52.8605 135.492C52.7164 135.492 52.8827 135.411 52.8827 135.411L53.0194 134.04L56.6299 124.841L75.9723 113.611C75.5805 114.793 75.4475 116.604 75.4808 118.682C75.5769 125.341 77.3248 134.722 77.3248 134.722Z" fill="black"/>
<path d="M77.3249 134.274C73.9361 136.285 59.0358 135.466 54.1799 135.14L52.8606 135.044H52.6426L52.8828 134.981L54.0728 134.666L56.63 124.407L75.9724 113.171C75.5807 114.352 75.4476 116.163 75.4809 118.241C75.577 124.889 77.3249 134.274 77.3249 134.274Z" fill="#F2F1F2"/>
<path opacity="0.1" d="M75.4808 118.226C71.5488 119.133 62.8939 121.804 59.5679 128.226C57.3506 132.515 55.5029 134.355 54.1836 135.126L52.8643 135.029L52.8864 134.948L54.0764 134.633L56.6337 124.374L75.976 113.137C75.5769 114.352 75.4475 116.148 75.4808 118.226Z" fill="black"/>
<path opacity="0.1" d="M8.54056 121.452L13.0565 124.167C12.6019 124.281 12.0254 124.718 11.3787 125.355C11.0092 124.244 8.63664 122.719 7.56494 122.067C8.14883 121.667 8.54056 121.452 8.54056 121.452Z" fill="black"/>
<path opacity="0.1" d="M52.0706 135.218C52.0201 135.247 51.9619 135.258 51.9046 135.25C51.8472 135.243 51.7937 135.217 51.752 135.177C51.8556 135.207 51.9629 135.221 52.0706 135.218Z" fill="black"/>
<path d="M62.2731 89.6232C62.2731 89.6232 58.208 90.075 55.3477 87.0603C55.3477 87.0603 43.3077 90.5306 39.2426 98.3748C35.1776 106.219 7.4834 121.604 7.4834 121.604C7.4834 121.604 12.2876 124.318 11.8478 125.678L30.0593 115.119C30.0593 115.119 36.5301 110.441 38.3372 109.386C40.1444 108.33 50.0779 101.845 52.1843 119.493C54.2908 137.14 52.1843 135.048 52.1843 135.048C52.1843 135.048 55.1962 136.103 59.5754 127.641C63.9546 119.178 77.4875 117.233 77.4875 117.233L78.2266 108.345C78.2266 108.345 80.9133 102.449 78.8549 99.9896C78.2272 99.2659 77.8103 98.3831 77.6501 97.4378C77.3064 95.1786 77.6501 91.412 82.4543 88.2825C89.8453 83.4678 92.6909 79.5346 92.6909 79.5346C92.6909 79.5346 92.8424 76.668 88.3265 75.3125C83.8106 73.957 65.4476 66.5647 65.4476 66.5647L64.8452 69.1275L79.2946 79.3865C79.2946 79.3865 72.0699 85.2678 66.3603 85.1196C66.3382 85.0937 67.3914 89.4714 62.2731 89.6232Z" fill="#565388"/>
<path opacity="0.1" d="M65.0634 82.5975C64.7076 81.3821 64.4298 80.145 64.232 78.8939L56.2534 81.0198C56.6026 82.5456 56.5401 84.1371 56.0723 85.6307C57.7029 86.0667 59.4255 86.0111 61.0248 85.471C62.624 84.9308 64.0288 83.93 65.0634 82.5938V82.5975Z" fill="black"/>
<path d="M58.4369 85.4752C63.1761 85.4752 67.0179 81.625 67.0179 76.8755C67.0179 72.126 63.1761 68.2757 58.4369 68.2757C53.6978 68.2757 49.856 72.126 49.856 76.8755C49.856 81.625 53.6978 85.4752 58.4369 85.4752Z" fill="#FFBDC6"/>
<path opacity="0.1" d="M62.9973 57.3168C65.3772 57.5871 67.6425 58.613 69.9855 59.1686C70.5709 59.3526 71.1947 59.3769 71.7926 59.2389C72.7017 58.9575 73.4408 58.0019 74.3795 58.0316C74.9597 58.0316 75.4881 58.4464 75.9538 58.8278C76.7251 59.4144 77.4503 60.0595 78.123 60.7574C79.738 62.5166 80.7431 64.8869 82.2176 66.798C83.6922 68.709 86.0166 70.1979 88.112 69.3201C86.6892 74.8755 82.0181 79.1235 76.97 79.468C74.956 79.605 72.905 79.1865 70.9426 79.7791C70.4563 79.9778 69.9432 80.1026 69.4201 80.1494C68.3114 80.1494 67.3949 79.1161 66.6928 78.1124C65.052 75.7496 63.7364 73.0682 61.8886 70.9164C61.2789 70.2053 60.5582 69.5275 59.6972 69.3979C58.8361 69.2683 58.0416 69.6794 57.2729 70.0794C56.0054 70.7386 54.7082 71.4201 53.7252 72.5459C52.7422 73.6718 52.1214 75.357 52.5279 76.8829C52.7459 77.705 53.2485 78.4458 53.267 79.3087C53.267 80.679 52.077 81.6827 51.8368 83.0123C51.7839 83.5736 51.7642 84.1375 51.7777 84.7011C51.6705 86.5307 50.4806 88.0344 49.2315 89.1788C48.7474 89.6269 48.2078 90.1047 48.0674 90.7972C47.9713 91.2676 48.0674 91.7676 48.0046 92.2454C47.8235 93.4342 46.6409 94.0342 45.5951 94.1897C44.3736 94.3692 43.1266 94.2209 41.9809 93.7601C43.4591 93.0676 44.3423 91.0935 44.0023 89.3158C43.5367 86.8677 41.0829 85.1122 41.2898 82.616C41.4056 81.8516 41.6348 81.1088 41.9698 80.4124C42.5053 79.0657 42.8944 77.665 43.1302 76.2347C43.372 75.1339 43.3479 73.9911 43.06 72.9015C42.7459 71.9423 42.1065 71.1793 41.5596 70.3682C40.8189 69.2656 40.2344 68.0653 39.8227 66.8017C39.6735 66.4282 39.6165 66.0242 39.6564 65.6239C39.7756 65.1518 40.033 64.7261 40.3955 64.4018C41.7407 62.9907 43.1819 61.5204 44.9706 61.113C45.8252 60.9703 46.6944 60.9367 47.5574 61.013C49.0642 61.061 50.5724 60.9966 52.0696 60.8204C53.3039 60.6759 55.3956 60.6945 56.4377 59.8871C57.4097 59.1464 57.9603 58.2019 59.1613 57.7279C60.3871 57.2781 61.7043 57.137 62.9973 57.3168Z" fill="black"/>
<path opacity="0.1" d="M67.7686 146.114C67.7686 146.114 72.7353 155.918 71.2313 158.936L67.7686 146.114Z" fill="black"/>
<path opacity="0.1" d="M76.7744 172.336L69.5016 163.077V163.24C69.5016 163.24 69.0803 160.247 70.4662 161.254C73.5002 163.454 78.3561 167.062 78.4596 167.684C78.563 168.306 77.4765 170.802 76.7744 172.336Z" fill="black"/>
<g opacity="0.1">
<path opacity="0.1" d="M66.4824 85.0937C66.4824 85.0937 67.0958 87.6418 65.1113 88.9158C68.1675 88.3899 68.3006 86.0085 68.2082 84.9715C67.6377 85.0641 67.0601 85.105 66.4824 85.0937Z" fill="black"/>
<path opacity="0.1" d="M9.29405 121C9.29405 121 36.9882 105.615 41.0533 97.7711C43.9691 92.1417 50.9942 88.7677 54.7267 87.3085C52.0031 88.2233 42.8382 91.7306 39.394 98.3748C35.329 106.219 7.63477 121.604 7.63477 121.604L9.29405 121Z" fill="black"/>
<path opacity="0.1" d="M71.8704 83.8975C76.5822 82.416 81.087 78.7606 81.087 78.7606L66.6375 68.5016L66.9664 67.0943L65.5843 66.5387L64.9819 69.1016L79.4314 79.3606C77.1127 81.1873 74.572 82.7117 71.8704 83.8975Z" fill="black"/>
<path opacity="0.1" d="M71.9624 118.659C73.8087 118.028 75.7034 117.548 77.6276 117.226L77.6535 116.934C75.7148 117.36 73.812 117.937 71.9624 118.659Z" fill="black"/>
<path opacity="0.1" d="M54.4495 134.463H54.3165C54.2661 134.491 54.2081 134.502 54.1509 134.495C54.0937 134.487 54.0403 134.462 53.9987 134.422C54.1021 134.451 54.2091 134.465 54.3165 134.463C54.8117 134.174 55.5545 131.922 53.9987 118.885C52.3357 104.967 45.8094 106.06 42.2358 107.66C45.887 106.652 50.9129 107.523 52.3431 119.489C53.8989 132.526 53.1561 134.781 52.6609 135.066C53.3028 135.042 53.924 134.833 54.4495 134.463Z" fill="black"/>
<path opacity="0.1" d="M52.6619 135.07C52.5543 135.072 52.4469 135.058 52.3433 135.029C52.385 135.069 52.4385 135.095 52.4959 135.102C52.5532 135.11 52.6114 135.098 52.6619 135.07Z" fill="black"/>
</g>
<path d="M62.9973 57.0242C65.3772 57.2946 67.6425 58.3205 69.9855 58.876C70.5709 59.06 71.1947 59.0843 71.7926 58.9464C72.7017 58.6649 73.4408 57.7094 74.3795 57.739C74.9597 57.739 75.4881 58.1538 75.9538 58.5353C76.7251 59.1218 77.4503 59.7669 78.123 60.4648C79.738 62.224 80.7431 64.5943 82.2176 66.5054C83.6922 68.4164 86.0166 69.9053 88.112 69.0275C86.6892 74.5829 82.0181 78.8309 76.97 79.1754C74.956 79.3124 72.905 78.8939 70.9426 79.4865C70.4563 79.6852 69.9432 79.81 69.4201 79.8568C68.3114 79.8568 67.3949 78.8235 66.6928 77.8199C65.052 75.457 63.7364 72.7756 61.8886 70.6238C61.2789 69.9127 60.5582 69.2349 59.6972 69.1053C58.8361 68.9757 58.0416 69.3868 57.2729 69.7868C56.0054 70.446 54.7082 71.1275 53.7252 72.2534C52.7422 73.3793 52.1214 75.0644 52.5279 76.5903C52.7459 77.4125 53.2485 78.1532 53.267 79.0161C53.267 80.3864 52.077 81.3901 51.8368 82.7197C51.7839 83.281 51.7642 83.8449 51.7777 84.4085C51.6705 86.2381 50.4806 87.7418 49.2315 88.8862C48.7474 89.3343 48.2078 89.8121 48.0674 90.5047C47.9713 90.975 48.0674 91.475 48.0046 91.9528C47.8235 93.1416 46.6409 93.7416 45.5951 93.8971C44.3736 94.0766 43.1266 93.9283 41.9809 93.4675C43.4591 92.775 44.3423 90.8009 44.0023 89.0232C43.5367 86.5751 41.0829 84.8196 41.2898 82.3234C41.4056 81.559 41.6348 80.8162 41.9698 80.1198C42.5053 78.7731 42.8944 77.3724 43.1302 75.9421C43.372 74.8413 43.3479 73.6985 43.06 72.6089C42.7459 71.6497 42.1065 70.8867 41.5596 70.0757C40.8189 68.973 40.2344 67.7727 39.8227 66.5091C39.6735 66.1356 39.6165 65.7316 39.6564 65.3314C39.7756 64.8592 40.033 64.4335 40.3955 64.1092C41.7407 62.6981 43.1819 61.2278 44.9706 60.8204C45.8252 60.6777 46.6944 60.6441 47.5574 60.7204C49.0642 60.7684 50.5724 60.7041 52.0696 60.5278C53.3039 60.3834 55.3956 60.4019 56.4377 59.5945C57.4097 58.8538 57.9603 57.9094 59.1613 57.4353C60.3871 56.9856 61.7043 56.8444 62.9973 57.0242Z" fill="#A66477"/>
<path d="M308.021 37.7211C308.021 37.6729 308.021 37.6285 308.021 37.584C308.021 37.5396 308.021 37.4878 307.999 37.4433H307.94C307.94 37.3433 307.94 37.2433 307.94 37.1359C307.792 33.7027 303.055 26.3955 301.155 28.5288C299.492 30.4028 302.001 35.1434 303.28 37.2766L303.395 37.4692L303.332 37.4285C303.332 37.4285 298.044 53.2354 297.419 53.8502C296.794 54.465 292.441 66.8943 286.702 68.2942C285.567 68.5646 284.625 68.809 283.834 69.035L283.897 68.8238C284.267 67.6128 284.721 66.4684 284.906 65.1203C285.091 63.7721 284.906 62.1389 284.226 61.4833C283.893 61.1574 283.487 61.113 283.213 60.5945C283.036 60.1397 282.941 59.6568 282.933 59.1686L282.445 53.1762L282.785 53.0725C284.839 52.4132 286.831 50.8503 287.064 48.7467C286.993 48.7739 286.92 48.7974 286.846 48.817C286.873 48.6947 286.894 48.5711 286.909 48.4467C285.183 49.1281 283.583 47.3356 281.92 46.5319C279.182 45.1875 276.052 46.4542 273.224 46.7615C270.02 47.1134 266.979 45.7801 263.705 46.0208C261.924 46.1579 259.943 47.3689 260.039 49.1281C260.094 50.0948 260.778 50.9133 261.059 51.8392C261.768 54.0798 260.19 56.3279 258.808 58.239C257.899 59.4945 257.027 61.0241 256.872 62.4981C253.69 59.1649 250.249 55.3131 249.85 53.865L240.645 38.0581C240.645 38.0581 240.427 38.2914 240.076 38.6359C240.02 38.4655 239.954 38.2655 239.88 38.0655C238.705 34.7656 235.379 26.7696 231.162 28.2362C226.945 29.7028 232.91 37.8989 235.504 41.1654L235.874 41.6173C235.656 41.6708 235.428 41.6605 235.216 41.5876L245.482 59.2352C245.482 59.2352 247.348 62.6129 249.059 63.5314C249.059 63.5314 261.813 79.6457 261.968 82.8679C262.123 86.09 267.703 94.686 267.703 94.686C267.703 94.686 269.57 108.652 266.303 111.108H266.343H266.369H266.41H266.447H266.521H266.569H266.617H266.68H266.731H266.805H266.842C266.687 111.26 266.528 111.426 266.366 111.608C263.945 114.297 260.852 120.059 265.08 129.859C271.299 144.303 272.234 149.962 272.234 149.962C272.234 149.962 260.408 150.577 258.08 151.036C256.018 151.444 248.003 151.729 246.17 151.777C245.515 151.014 243.583 149.325 240.974 151.777C237.707 154.847 235.375 165.11 235.375 165.11C235.375 165.11 234.13 173.398 238.331 171.247C238.331 171.247 243.309 164.339 244.706 164.032C245.401 163.88 246.136 162.854 246.698 161.865L246.728 161.884C246.761 161.884 246.898 161.81 247.119 161.721C248.154 161.31 251.003 160.321 253.25 160.814C254.481 161.084 259.758 161.147 265.29 161.132C264.041 164.132 261.802 171.873 261.802 171.873C261.802 171.873 260.867 179.091 263.971 178.795C266.188 178.576 269.588 172.898 271.362 169.658C272.648 168.713 276.332 165.328 279.056 165.584L297.408 158.525C297.408 158.525 301.761 156.069 299.429 147.936C297.582 141.47 292.323 128.233 290.246 123.074L290.183 122.941C289.681 121.693 289.378 120.952 289.378 120.952C288.524 118.597 287.965 116.145 287.711 113.652C287.692 113.456 287.678 113.256 287.663 113.06C287.92 112.951 288.162 112.811 288.383 112.641C288.383 112.641 286.672 95.3008 288.383 93.4564L288.413 93.4231V93.4009L288.443 93.3638L288.509 93.2787L288.59 93.175C288.683 93.0527 288.794 92.9009 288.919 92.7157C289.899 91.2787 291.724 87.9973 291.199 84.1234C291.177 83.9555 291.15 83.7864 291.118 83.616C290.917 82.5654 290.558 81.5514 290.054 80.6087C289.98 80.2162 289.934 79.8189 289.917 79.4198C289.917 79.1939 289.917 78.9458 289.917 78.6791V78.6347C289.917 78.5631 289.917 78.4915 289.917 78.4199V78.368C289.917 78.1939 289.947 77.9976 289.973 77.8347V77.768C289.973 77.7014 289.984 77.6335 290.006 77.5643V77.4791C290.006 77.4125 290.035 77.3458 290.05 77.2791V77.2088C290.072 77.1199 290.094 77.031 290.124 76.9421V76.8977C290.146 76.8236 290.171 76.7508 290.198 76.6792L290.231 76.594L290.305 76.4162L290.342 76.3273C290.372 76.2607 290.405 76.194 290.438 76.1273L290.464 76.0718C290.508 75.9903 290.555 75.91 290.604 75.831L290.645 75.7681L290.767 75.594L290.826 75.5162L290.956 75.3607L291.015 75.294C291.081 75.2237 291.148 75.1533 291.222 75.0866C293.243 73.2348 302.264 59.5871 302.264 59.5871C302.264 59.5871 304.44 56.5168 304.44 54.5243C304.562 54.4798 308.409 41.6284 308.021 37.7211ZM283.805 152.44C283.583 150.336 283.361 147.729 283.158 145.033L286.676 150.529C286.676 150.529 286.344 152.203 283.805 152.44Z" fill="url(#paint3_linear)"/>
<path d="M247.123 151.277C247.123 151.277 245.016 147.944 241.853 150.977C238.69 154.01 236.435 164.099 236.435 164.099C236.435 164.099 235.231 172.247 239.296 170.132C239.296 170.132 244.1 163.343 245.467 163.043C246.835 162.743 248.328 158.969 248.328 158.969L247.123 151.277Z" fill="#493545"/>
<path d="M269.699 159.421C269.699 159.421 266.838 158.062 265.937 159.121C265.035 160.18 262.023 170.736 262.023 170.736C262.023 170.736 261.121 177.676 264.13 177.372C267.138 177.069 272.408 166.202 272.408 166.202L269.699 159.421Z" fill="#493545"/>
<path opacity="0.05" d="M269.699 159.421C269.699 159.421 266.838 158.062 265.937 159.121C265.035 160.18 262.023 170.736 262.023 170.736C262.023 170.736 261.121 177.676 264.13 177.372C267.138 177.069 272.408 166.202 272.408 166.202L269.699 159.421Z" fill="black"/>
<path d="M279.632 138.907L286.103 149.014C286.103 149.014 285.652 151.277 281.739 150.825L268.342 159.273C268.342 159.273 267.178 169.558 270.9 168.625C271.502 168.473 275.704 164.099 278.727 164.402L296.491 157.462C296.491 157.462 300.704 155.047 298.446 147.055C296.188 139.062 288.723 120.53 288.723 120.53L276.923 127.144L279.632 138.907Z" fill="#3E3D77"/>
<path opacity="0.05" d="M279.632 138.907L286.103 149.014C286.103 149.014 285.652 151.277 281.739 150.825L268.342 159.273C268.342 159.273 267.178 169.558 270.9 168.625C271.502 168.473 275.704 164.099 278.727 164.402L296.491 157.462C296.491 157.462 300.704 155.047 298.446 147.055C296.188 139.062 288.723 120.53 288.723 120.53L276.923 127.144L279.632 138.907Z" fill="black"/>
<path d="M283.697 153.84C284.599 159.573 279.484 160.025 279.484 160.025C279.484 160.025 256.454 160.477 253.745 159.873C251.036 159.269 247.422 160.928 247.422 160.928C242.755 158.062 246.52 150.973 246.52 150.973C246.52 150.973 256.155 150.673 258.413 150.233C260.67 149.792 272.108 149.166 272.108 149.166C272.108 149.166 271.206 143.585 265.183 129.407C261.092 119.778 264.074 114.111 266.428 111.471C267.029 110.77 267.724 110.157 268.494 109.649L287.008 110.552C286.988 111.488 287.023 112.424 287.112 113.356C287.428 116.555 288.258 119.681 289.569 122.615C288.516 122.615 281.742 128.952 281.742 128.952C281.742 128.952 282.792 148.11 283.697 153.84Z" fill="#3E3D77"/>
<path opacity="0.1" d="M247.873 151.577C247.873 151.577 257.507 151.277 259.765 150.836C262.023 150.395 273.461 149.781 273.461 149.781C273.461 149.781 272.559 144.199 266.536 130.022C262.445 120.393 265.427 114.726 267.781 112.086C268.382 111.385 269.077 110.771 269.847 110.263L287.001 111.1C287.001 110.923 287.001 110.73 287.001 110.563L268.487 109.66C267.717 110.168 267.022 110.781 266.421 111.482C264.078 114.126 261.085 119.789 265.176 129.418C271.214 143.585 272.108 149.166 272.108 149.166C272.108 149.166 260.652 149.77 258.413 150.221C256.173 150.673 246.521 150.962 246.521 150.962C246.521 150.962 242.759 158.054 247.422 160.932C247.422 160.932 247.563 160.866 247.792 160.769C244.691 157.573 247.873 151.577 247.873 151.577Z" fill="black"/>
<path d="M275.416 54.2835H266.084V77.9643H275.416V54.2835Z" fill="#493545"/>
<path opacity="0.1" d="M275.416 54.2835H266.084V77.9643H275.416V54.2835Z" fill="black"/>
<path d="M280.752 50.8096C281.074 50.8985 281.436 50.9096 281.654 51.354C281.789 51.7092 281.863 52.085 281.872 52.4651L282.46 59.7834C282.468 60.2625 282.56 60.7364 282.733 61.1833C282.981 61.6796 283.391 61.7389 283.712 62.0574C284.359 62.7018 284.547 64.3166 284.37 65.6314C284.193 66.9461 283.746 68.072 283.395 69.2609C282.892 70.9645 282.559 72.8793 281.853 74.3163C281.148 75.7533 279.865 76.5384 279.037 75.3311C278.21 74.1237 278.321 71.6867 278.165 69.6905C277.907 66.3573 276.61 63.4833 276.521 60.1278C276.447 57.4131 277.175 54.8798 277.629 52.3058C277.955 50.5392 277.973 48.3948 278.446 46.806C278.842 48.6948 279.596 50.4911 280.752 50.8096Z" fill="#493545"/>
<path opacity="0.1" d="M280.752 50.8096C281.074 50.8985 281.436 50.9096 281.654 51.354C281.789 51.7092 281.863 52.085 281.872 52.4651L282.46 59.7834C282.468 60.2625 282.56 60.7364 282.733 61.1833C282.981 61.6796 283.391 61.7389 283.712 62.0574C284.359 62.7018 284.547 64.3166 284.37 65.6314C284.193 66.9461 283.746 68.072 283.395 69.2609C282.892 70.9645 282.559 72.8793 281.853 74.3163C281.148 75.7533 279.865 76.5384 279.037 75.3311C278.21 74.1237 278.321 71.6867 278.165 69.6905C277.907 66.3573 276.61 63.4833 276.521 60.1278C276.447 57.4131 277.175 54.8798 277.629 52.3058C277.955 50.5392 277.973 48.3948 278.446 46.806C278.842 48.6948 279.596 50.4911 280.752 50.8096Z" fill="black"/>
<path d="M241.25 40.4062L237.64 43.4246C237.64 43.4246 237.211 42.9209 236.572 42.1061C234.063 38.8951 228.294 30.8398 232.37 29.3991C236.446 27.9584 239.669 35.8137 240.807 39.0581C241.095 39.8803 241.25 40.4062 241.25 40.4062Z" fill="#C77485"/>
<path d="M306.425 39.3507C304.921 41.6136 302.814 39.3507 302.814 39.3507C302.814 39.3507 302.544 38.947 302.164 38.2951C300.926 36.1952 298.498 31.5398 300.105 29.6954C301.953 27.5881 306.532 34.7804 306.672 38.1544C306.716 38.5692 306.629 38.9874 306.425 39.3507Z" fill="#C77485"/>
<path d="M269.396 63.787C269.396 63.787 272.407 73.4422 271.502 76.3051C270.597 79.168 277.976 82.5012 277.976 82.5012H286.406C286.406 82.5012 289.418 76.3162 288.664 74.5052C287.91 72.6941 281.439 71.3386 281.439 71.3386C281.439 71.3386 277.677 71.3386 277.829 61.2315L269.396 63.787Z" fill="#C77485"/>
<path opacity="0.1" d="M241.251 40.4062L237.64 43.4246C237.64 43.4246 237.212 42.9209 236.572 42.1061C237.884 41.8728 239.92 39.9544 240.811 39.0581C241.096 39.8803 241.251 40.4062 241.251 40.4062Z" fill="black"/>
<path opacity="0.1" d="M306.425 39.3507C304.92 41.6136 302.814 39.3507 302.814 39.3507C302.814 39.3507 302.544 38.947 302.164 38.2951L302.212 38.1433C303.187 38.8433 306.221 38.247 306.672 38.1433C306.718 38.5618 306.631 38.9842 306.425 39.3507Z" fill="black"/>
<path opacity="0.1" d="M287.105 113.352C282.448 115.482 267.319 111.689 266.41 111.463C267.01 110.763 267.706 110.149 268.475 109.641L286.99 110.545C286.974 111.482 287.012 112.419 287.105 113.352Z" fill="black"/>
<path d="M271.354 72.083C271.354 72.083 267.744 73.2904 262.625 68.6127C262.625 68.6127 251.169 57.2983 250.43 54.5835L241.561 39.0285C241.561 39.0285 237.799 43.1024 236.291 42.4987L246.225 59.8463C246.225 59.8463 248.032 63.1796 249.687 64.0684C249.687 64.0684 262.03 79.9087 262.178 83.0753C262.326 86.2418 267.74 94.7231 267.74 94.7231C267.74 94.7231 269.547 108.449 266.384 110.863C266.384 110.863 283.993 115.389 287.755 112.371C287.755 112.371 286.099 95.3342 287.755 93.5157C287.755 93.5157 292.873 87.4825 289.41 80.8457C289.41 80.8457 288.671 77.2273 290.615 75.4162C292.559 73.6052 301.303 60.1797 301.303 60.1797C301.303 60.1797 303.409 57.1612 303.409 55.202C303.409 55.202 307.323 41.9284 306.735 38.4581C306.735 38.4581 303.272 39.1988 302.219 38.4581C302.219 38.4581 297.101 54.0132 296.498 54.5984C295.896 55.1835 291.694 67.4202 286.114 68.7794C280.534 70.1386 279.643 70.7386 279.643 70.7386C279.643 70.7386 290.478 77.5273 285.212 80.542C279.946 83.5567 271.354 72.083 271.354 72.083Z" fill="#FFAAC4"/>
<path opacity="0.1" d="M278.195 66.1091C278.016 64.6882 277.943 63.2559 277.977 61.8241L269.547 64.3869C269.769 64.9497 269.946 65.5293 270.076 66.1202C271.04 66.5461 272.341 67.5535 273.461 67.5535C275.155 67.609 276.819 67.1011 278.195 66.1091Z" fill="black"/>
<path d="M273.309 67.1054C277.632 67.1054 281.136 63.5934 281.136 59.2612C281.136 54.9289 277.632 51.417 273.309 51.417C268.986 51.417 265.482 54.9289 265.482 59.2612C265.482 63.5934 268.986 67.1054 273.309 67.1054Z" fill="#C77485"/>
<path opacity="0.1" d="M263.996 47.1764C262.274 47.3097 260.353 48.5022 260.449 50.2318C260.5 51.1836 261.151 51.9873 261.435 52.8984C262.119 55.102 260.597 57.3131 259.259 59.1945C257.921 61.0759 256.672 63.5685 257.817 65.561C258.144 66.0407 258.497 66.5019 258.874 66.9424C260.29 68.8572 260.271 71.4423 260.9 73.7422C261.702 76.6846 263.598 79.2072 266.199 80.7915C268.8 82.3759 271.908 82.9015 274.883 82.2605C273.763 80.8275 273.205 79.0334 273.313 77.2162C273.398 75.8977 273.823 74.52 273.313 73.3015C272.655 71.7349 270.726 71.1164 269.732 69.746C268.738 68.3757 268.804 66.4758 269.285 64.8425C269.765 63.2092 270.597 61.6944 270.996 60.0278C271.094 59.5416 271.218 59.0607 271.365 58.5871C272.06 56.6094 274.137 55.4613 276.169 54.9687C278.202 54.4761 280.338 54.4465 282.322 53.7984C284.307 53.1502 286.236 51.6318 286.465 49.5467C284.795 50.217 283.246 48.4689 281.635 47.6652C278.982 46.3467 275.955 47.5875 273.22 47.8911C270.105 48.2393 267.149 46.9467 263.996 47.1764Z" fill="black"/>
<path d="M263.845 46.8764C262.123 47.0097 260.201 48.2022 260.297 49.9318C260.349 50.8836 260.999 51.6873 261.284 52.5984C261.968 54.8021 260.445 57.0131 259.107 58.8945C257.77 60.7759 256.52 63.2685 257.666 65.261C257.993 65.7407 258.345 66.2019 258.723 66.6424C260.138 68.5572 260.12 71.1423 260.748 73.4422C261.55 76.3846 263.447 78.9072 266.048 80.4916C268.649 82.0759 271.756 82.6015 274.732 81.9605C273.612 80.5275 273.053 78.7334 273.161 76.9162C273.246 75.5977 273.671 74.22 273.161 73.0015C272.504 71.4349 270.575 70.8164 269.58 69.4461C268.586 68.0757 268.653 66.1758 269.133 64.5425C269.614 62.9092 270.445 61.3944 270.844 59.7278C270.943 59.2416 271.066 58.7607 271.214 58.2871C271.909 56.3094 273.985 55.1613 276.018 54.6687C278.051 54.1761 280.187 54.1465 282.171 53.4984C284.156 52.8503 286.085 51.3318 286.314 49.2467C284.643 49.917 283.095 48.1689 281.484 47.3652C278.83 46.0468 275.804 47.2875 273.069 47.5912C269.961 47.9356 267.016 46.6282 263.845 46.8764Z" fill="#493545"/>
<path opacity="0.1" d="M281.062 76.6866C281.062 76.6866 284.196 79.4902 284.813 80.7272L281.062 76.6866Z" fill="black"/>
<path opacity="0.1" d="M287.844 93.4305C287.844 93.4305 283.93 93.4305 282.123 93.8823C280.316 94.3342 275.952 93.8823 275.952 93.8823" fill="black"/>
<g opacity="0.1">
<path opacity="0.1" d="M285.201 80.5309C284.864 80.7244 284.499 80.8643 284.119 80.9457C285.1 81.1638 286.128 81.0163 287.009 80.5309C292.278 77.5125 281.439 70.7275 281.439 70.7275H279.632C279.632 70.7275 290.471 77.5162 285.201 80.5309Z" fill="black"/>
<path opacity="0.1" d="M306.761 38.7211C306.761 38.6248 306.739 38.5322 306.724 38.447C306.105 38.5756 305.48 38.6708 304.851 38.7322C305.486 38.8022 306.127 38.7985 306.761 38.7211Z" fill="black"/>
<path opacity="0.1" d="M268.195 110.852C271.354 108.437 269.551 94.7119 269.551 94.7119C269.551 94.7119 264.133 86.264 263.982 83.0975C263.83 79.9309 251.491 64.0907 251.491 64.0907C249.835 63.187 248.028 59.8686 248.028 59.8686C248.028 59.8686 237.792 43.1246 236.288 42.5209L246.221 59.8686C246.221 59.8686 248.028 63.2018 249.684 64.0907C249.684 64.0907 262.027 79.9309 262.175 83.0975C262.322 86.264 267.74 94.7231 267.74 94.7231C267.74 94.7231 269.547 108.449 266.384 110.863C266.384 110.863 277.208 113.645 283.697 113.393C277.193 113.163 268.195 110.852 268.195 110.852Z" fill="black"/>
<path opacity="0.1" d="M271.443 72.2015L271.354 72.0867C271.251 72.1172 271.146 72.1408 271.04 72.1571C271.18 72.1756 271.314 72.1904 271.443 72.2015Z" fill="black"/>
</g>
<g opacity="0.1">
<path opacity="0.1" d="M306.724 38.4285L306.632 38.447C306.473 43.0802 303.265 53.965 303.265 53.965C303.265 55.9242 301.159 58.9427 301.159 58.9427C301.159 58.9427 292.43 72.3682 290.471 74.1792C288.513 75.9903 289.267 79.6087 289.267 79.6087L289.285 79.6457C289.226 78.4273 289.374 76.5384 290.619 75.3829C292.574 73.5718 301.307 60.1463 301.307 60.1463C301.307 60.1463 303.413 57.1279 303.413 55.1687C303.413 55.1909 307.327 41.9172 306.724 38.4285Z" fill="black"/>
<path opacity="0.1" d="M287.611 92.2972C287.836 93.5786 287.685 92.2231 287.762 93.5046C287.762 93.5046 291.458 89.1603 290.449 83.79C290.752 88.5899 287.611 92.2972 287.611 92.2972Z" fill="black"/>
</g>
<path d="M112.347 214.349C112.347 214.349 106.967 196.035 113.356 182.557C116.074 176.921 116.893 170.553 115.692 164.41C115.098 161.498 114.24 158.647 113.127 155.892" stroke="#535461" stroke-width="2" stroke-miterlimit="10"/>
<path d="M117.111 147.381C117.111 149.625 113.046 156.132 113.046 156.132C113.046 156.132 108.981 149.625 108.981 147.381C108.94 146.822 109.014 146.261 109.199 145.732C109.384 145.203 109.676 144.718 110.056 144.308C110.437 143.897 110.898 143.57 111.41 143.346C111.923 143.122 112.476 143.006 113.035 143.006C113.594 143.006 114.147 143.122 114.66 143.346C115.172 143.57 115.633 143.897 116.013 144.308C116.394 144.718 116.686 145.203 116.871 145.732C117.056 146.261 117.13 146.822 117.089 147.381H117.111Z" fill="#FFC400"/>
<path d="M123.803 159.81C122.588 161.695 115.655 164.947 115.655 164.947C115.655 164.947 115.78 157.277 116.996 155.392C117.266 154.902 117.633 154.474 118.075 154.133C118.517 153.792 119.025 153.546 119.566 153.41C120.107 153.274 120.67 153.251 121.22 153.342C121.771 153.434 122.296 153.638 122.765 153.942C123.233 154.246 123.634 154.643 123.942 155.109C124.25 155.574 124.46 156.099 124.557 156.649C124.655 157.2 124.638 157.765 124.508 158.308C124.379 158.852 124.139 159.363 123.803 159.81Z" fill="#FFC400"/>
<path d="M123.512 181.057C121.512 182.069 113.903 181.369 113.903 181.369C113.903 181.369 117.876 174.81 119.875 173.798C120.355 173.51 120.888 173.324 121.442 173.251C121.997 173.179 122.56 173.222 123.097 173.378C123.634 173.533 124.133 173.798 124.563 174.156C124.994 174.514 125.346 174.956 125.597 175.457C125.849 175.957 125.995 176.504 126.026 177.063C126.058 177.622 125.974 178.182 125.779 178.708C125.585 179.233 125.285 179.712 124.897 180.116C124.509 180.52 124.043 180.839 123.526 181.054L123.512 181.057Z" fill="#FFC400"/>
<path d="M119.679 197.079C117.88 198.413 110.245 199.016 110.245 199.016C110.245 199.016 113.053 191.879 114.857 190.542C115.724 190.014 116.758 189.83 117.755 190.027C118.751 190.224 119.638 190.788 120.24 191.607C120.842 192.426 121.117 193.442 121.01 194.454C120.903 195.466 120.421 196.401 119.661 197.076L119.679 197.079Z" fill="#FFC400"/>
<path d="M107.133 165.384C108.741 166.947 116.224 168.569 116.224 168.569C116.224 168.569 114.376 161.121 112.784 159.554C112.412 159.137 111.958 158.801 111.451 158.566C110.944 158.332 110.395 158.205 109.836 158.193C109.278 158.182 108.724 158.285 108.207 158.497C107.691 158.71 107.223 159.026 106.834 159.428C106.445 159.829 106.143 160.306 105.946 160.83C105.749 161.354 105.662 161.912 105.69 162.471C105.718 163.03 105.861 163.577 106.109 164.078C106.357 164.579 106.706 165.024 107.133 165.384Z" fill="#FFC400"/>
<path d="M102.894 184.183C104.894 185.194 112.503 184.494 112.503 184.494C112.503 184.494 108.545 177.935 106.546 176.943C105.598 176.548 104.536 176.528 103.574 176.886C102.611 177.243 101.82 177.952 101.357 178.871C100.895 179.789 100.797 180.849 101.082 181.837C101.367 182.825 102.014 183.669 102.894 184.198V184.183Z" fill="#FFC400"/>
<path d="M101.268 203.02C103.068 204.353 110.703 204.957 110.703 204.957C110.703 204.957 107.894 197.82 106.091 196.483C105.668 196.108 105.172 195.826 104.635 195.654C104.097 195.482 103.53 195.424 102.968 195.483C102.407 195.543 101.865 195.719 101.375 196.001C100.886 196.282 100.46 196.662 100.125 197.118C99.7904 197.573 99.5538 198.093 99.4306 198.645C99.3074 199.197 99.3002 199.768 99.4094 200.323C99.5187 200.878 99.742 201.404 100.065 201.868C100.388 202.331 100.804 202.722 101.287 203.016L101.268 203.02Z" fill="#FFC400"/>
<path opacity="0.1" d="M117.111 147.381C117.111 149.625 113.046 156.132 113.046 156.132C113.046 156.132 108.981 149.625 108.981 147.381C108.94 146.822 109.014 146.261 109.199 145.732C109.384 145.203 109.676 144.718 110.056 144.308C110.437 143.897 110.898 143.57 111.41 143.346C111.923 143.122 112.476 143.006 113.035 143.006C113.594 143.006 114.147 143.122 114.66 143.346C115.172 143.57 115.633 143.897 116.013 144.308C116.394 144.718 116.686 145.203 116.871 145.732C117.056 146.261 117.13 146.822 117.089 147.381H117.111Z" fill="#FFC400"/>
<path opacity="0.1" d="M123.803 159.81C122.588 161.695 115.655 164.947 115.655 164.947C115.655 164.947 115.78 157.277 116.996 155.392C117.266 154.902 117.633 154.474 118.075 154.133C118.517 153.792 119.025 153.546 119.566 153.41C120.107 153.274 120.67 153.251 121.22 153.342C121.771 153.434 122.296 153.638 122.765 153.942C123.233 154.246 123.634 154.643 123.942 155.109C124.25 155.574 124.46 156.099 124.557 156.649C124.655 157.2 124.638 157.765 124.508 158.308C124.379 158.852 124.139 159.363 123.803 159.81Z" fill="#FFC400"/>
<path opacity="0.1" d="M123.512 181.057C121.512 182.069 113.903 181.369 113.903 181.369C113.903 181.369 117.876 174.81 119.875 173.798C120.355 173.51 120.888 173.324 121.442 173.251C121.997 173.179 122.56 173.222 123.097 173.378C123.634 173.533 124.133 173.798 124.563 174.156C124.994 174.514 125.346 174.956 125.597 175.457C125.849 175.957 125.995 176.504 126.026 177.063C126.058 177.622 125.974 178.182 125.779 178.708C125.585 179.233 125.285 179.712 124.897 180.116C124.509 180.52 124.043 180.839 123.526 181.054L123.512 181.057Z" fill="#FFC400"/>
<path opacity="0.1" d="M119.679 197.079C117.88 198.413 110.245 199.016 110.245 199.016C110.245 199.016 113.053 191.879 114.857 190.542C115.724 190.014 116.758 189.83 117.755 190.027C118.751 190.224 119.638 190.788 120.24 191.607C120.842 192.426 121.117 193.442 121.01 194.454C120.903 195.466 120.421 196.401 119.661 197.076L119.679 197.079Z" fill="#FFC400"/>
<path opacity="0.1" d="M107.133 165.384C108.741 166.947 116.224 168.569 116.224 168.569C116.224 168.569 114.376 161.121 112.784 159.554C112.412 159.137 111.958 158.801 111.451 158.566C110.944 158.332 110.395 158.205 109.836 158.193C109.278 158.182 108.724 158.285 108.207 158.497C107.691 158.71 107.223 159.026 106.834 159.428C106.445 159.829 106.143 160.306 105.946 160.83C105.749 161.354 105.662 161.912 105.69 162.471C105.718 163.03 105.861 163.577 106.109 164.078C106.357 164.579 106.706 165.024 107.133 165.384Z" fill="#FFC400"/>
<path opacity="0.1" d="M102.894 184.183C104.894 185.194 112.503 184.494 112.503 184.494C112.503 184.494 108.545 177.935 106.546 176.943C105.598 176.548 104.536 176.528 103.574 176.886C102.611 177.243 101.82 177.952 101.357 178.871C100.895 179.789 100.797 180.849 101.082 181.837C101.367 182.825 102.014 183.669 102.894 184.198V184.183Z" fill="#FFC400"/>
<path opacity="0.1" d="M101.268 203.02C103.068 204.353 110.703 204.957 110.703 204.957C110.703 204.957 107.894 197.82 106.091 196.483C105.668 196.108 105.172 195.826 104.635 195.654C104.097 195.482 103.53 195.424 102.968 195.483C102.407 195.543 101.865 195.719 101.375 196.001C100.886 196.282 100.46 196.662 100.125 197.118C99.7904 197.573 99.5538 198.093 99.4306 198.645C99.3074 199.197 99.3002 199.768 99.4094 200.323C99.5187 200.878 99.742 201.404 100.065 201.868C100.388 202.331 100.804 202.722 101.287 203.016L101.268 203.02Z" fill="#FFC400"/>
<path d="M221.232 214.612C221.232 214.612 215.851 196.298 222.241 182.82C224.958 177.184 225.778 170.816 224.577 164.673C223.983 161.761 223.125 158.909 222.012 156.155" stroke="#535461" stroke-width="2" stroke-miterlimit="10"/>
<path d="M225.988 147.64C225.988 149.884 221.923 156.392 221.923 156.392C221.923 156.392 217.858 149.884 217.858 147.64C217.934 146.614 218.394 145.655 219.146 144.956C219.897 144.256 220.886 143.867 221.912 143.867C222.938 143.867 223.926 144.256 224.678 144.956C225.43 145.655 225.89 146.614 225.966 147.64H225.988Z" fill="#FFC400"/>
<path d="M232.692 160.069C231.476 161.954 224.543 165.206 224.543 165.206C224.543 165.206 224.669 157.536 225.884 155.651C226.154 155.161 226.521 154.733 226.963 154.392C227.406 154.051 227.913 153.805 228.454 153.669C228.995 153.533 229.558 153.51 230.109 153.601C230.659 153.693 231.185 153.897 231.653 154.201C232.121 154.505 232.522 154.902 232.83 155.368C233.139 155.834 233.348 156.358 233.445 156.909C233.543 157.459 233.526 158.024 233.397 158.568C233.267 159.111 233.027 159.622 232.692 160.069Z" fill="#FFC400"/>
<path d="M232.411 181.317C230.412 182.328 222.803 181.628 222.803 181.628C222.803 181.628 226.775 175.069 228.775 174.058C229.255 173.767 229.789 173.578 230.345 173.504C230.901 173.43 231.466 173.473 232.005 173.628C232.544 173.784 233.045 174.05 233.477 174.409C233.908 174.768 234.261 175.213 234.513 175.715C234.764 176.217 234.909 176.767 234.939 177.328C234.969 177.889 234.882 178.451 234.685 178.977C234.487 179.503 234.183 179.982 233.792 180.385C233.401 180.788 232.931 181.105 232.411 181.317Z" fill="#FFC400"/>
<path d="M228.564 197.338C226.764 198.672 219.129 199.275 219.129 199.275C219.129 199.275 221.938 192.139 223.741 190.802C224.609 190.273 225.643 190.089 226.639 190.286C227.636 190.483 228.522 191.047 229.125 191.866C229.727 192.686 230.002 193.701 229.895 194.713C229.788 195.725 229.306 196.661 228.546 197.335L228.564 197.338Z" fill="#FFC400"/>
<path d="M216.025 165.643C217.633 167.206 225.116 168.828 225.116 168.828C225.116 168.828 223.268 161.38 221.676 159.814C221.304 159.396 220.851 159.06 220.343 158.826C219.836 158.592 219.287 158.465 218.729 158.453C218.17 158.441 217.616 158.544 217.099 158.757C216.583 158.969 216.115 159.286 215.726 159.687C215.337 160.088 215.035 160.566 214.838 161.089C214.641 161.613 214.554 162.171 214.582 162.73C214.61 163.289 214.753 163.836 215.001 164.337C215.249 164.838 215.598 165.283 216.025 165.643Z" fill="#FFC400"/>
<path d="M211.779 184.443C213.778 185.454 221.387 184.754 221.387 184.754C221.387 184.754 217.414 178.195 215.415 177.184C214.467 176.789 213.406 176.769 212.443 177.126C211.481 177.484 210.689 178.193 210.227 179.112C209.765 180.03 209.666 181.09 209.951 182.078C210.237 183.066 210.884 183.909 211.764 184.439L211.779 184.443Z" fill="#FFC400"/>
<path d="M210.157 203.279C211.956 204.612 219.591 205.216 219.591 205.216C219.591 205.216 216.783 198.079 214.979 196.742C214.111 196.214 213.078 196.03 212.081 196.227C211.085 196.424 210.198 196.988 209.596 197.807C208.993 198.626 208.719 199.642 208.826 200.654C208.933 201.666 209.414 202.601 210.175 203.275L210.157 203.279Z" fill="#FFC400"/>
<path opacity="0.1" d="M225.988 147.64C225.988 149.884 221.923 156.392 221.923 156.392C221.923 156.392 217.858 149.884 217.858 147.64C217.934 146.614 218.394 145.655 219.146 144.956C219.897 144.256 220.886 143.867 221.912 143.867C222.938 143.867 223.926 144.256 224.678 144.956C225.43 145.655 225.89 146.614 225.966 147.64H225.988Z" fill="#FFC400"/>
<path opacity="0.1" d="M232.692 160.069C231.476 161.954 224.543 165.206 224.543 165.206C224.543 165.206 224.669 157.536 225.884 155.651C226.154 155.161 226.521 154.733 226.963 154.392C227.406 154.051 227.913 153.805 228.454 153.669C228.995 153.533 229.558 153.51 230.109 153.601C230.659 153.693 231.185 153.897 231.653 154.201C232.121 154.505 232.522 154.902 232.83 155.368C233.139 155.834 233.348 156.358 233.445 156.909C233.543 157.459 233.526 158.024 233.397 158.568C233.267 159.111 233.027 159.622 232.692 160.069Z" fill="#FFC400"/>
<path opacity="0.1" d="M232.411 181.317C230.412 182.328 222.803 181.628 222.803 181.628C222.803 181.628 226.775 175.069 228.775 174.058C229.255 173.767 229.789 173.578 230.345 173.504C230.901 173.43 231.466 173.473 232.005 173.628C232.544 173.784 233.045 174.05 233.477 174.409C233.908 174.768 234.261 175.213 234.513 175.715C234.764 176.217 234.909 176.767 234.939 177.328C234.969 177.889 234.882 178.451 234.685 178.977C234.487 179.503 234.183 179.982 233.792 180.385C233.401 180.788 232.931 181.105 232.411 181.317Z" fill="#FFC400"/>
<path opacity="0.1" d="M228.564 197.338C226.764 198.672 219.129 199.275 219.129 199.275C219.129 199.275 221.938 192.139 223.741 190.802C224.609 190.273 225.643 190.089 226.639 190.286C227.636 190.483 228.522 191.047 229.125 191.866C229.727 192.686 230.002 193.701 229.895 194.713C229.788 195.725 229.306 196.661 228.546 197.335L228.564 197.338Z" fill="#FFC400"/>
<path opacity="0.1" d="M216.025 165.643C217.633 167.206 225.116 168.828 225.116 168.828C225.116 168.828 223.268 161.38 221.676 159.814C221.304 159.396 220.851 159.06 220.343 158.826C219.836 158.592 219.287 158.465 218.729 158.453C218.17 158.441 217.616 158.544 217.099 158.757C216.583 158.969 216.115 159.286 215.726 159.687C215.337 160.088 215.035 160.566 214.838 161.089C214.641 161.613 214.554 162.171 214.582 162.73C214.61 163.289 214.753 163.836 215.001 164.337C215.249 164.838 215.598 165.283 216.025 165.643Z" fill="#FFC400"/>
<path opacity="0.1" d="M211.779 184.443C213.778 185.454 221.387 184.754 221.387 184.754C221.387 184.754 217.414 178.195 215.415 177.184C214.467 176.789 213.406 176.769 212.443 177.126C211.481 177.484 210.689 178.193 210.227 179.112C209.765 180.03 209.666 181.09 209.951 182.078C210.237 183.066 210.884 183.909 211.764 184.439L211.779 184.443Z" fill="#FFC400"/>
<path opacity="0.1" d="M210.157 203.279C211.956 204.612 219.591 205.216 219.591 205.216C219.591 205.216 216.783 198.079 214.979 196.742C214.111 196.214 213.078 196.03 212.081 196.227C211.085 196.424 210.198 196.988 209.596 197.807C208.993 198.626 208.719 199.642 208.826 200.654C208.933 201.666 209.414 202.601 210.175 203.275L210.157 203.279Z" fill="#FFC400"/>
<path opacity="0.5" d="M247.562 5.6702H245.242C245.461 5.68071 245.681 5.64639 245.887 5.56933C246.093 5.49227 246.282 5.37408 246.441 5.2219C246.6 5.06971 246.727 4.88671 246.814 4.68398C246.901 4.48125 246.945 4.26301 246.945 4.04247C246.945 3.82193 246.901 3.60369 246.814 3.40096C246.727 3.19822 246.6 3.01522 246.441 2.86304C246.282 2.71086 246.093 2.59266 245.887 2.5156C245.681 2.43854 245.461 2.40423 245.242 2.41474H226.424C226.007 2.4347 225.613 2.6149 225.325 2.91797C225.036 3.22105 224.876 3.62372 224.876 4.04247C224.876 4.46121 225.036 4.86389 225.325 5.16696C225.613 5.47003 226.007 5.65024 226.424 5.6702H228.745C228.328 5.69015 227.934 5.87036 227.645 6.17343C227.357 6.4765 227.196 6.87918 227.196 7.29793C227.196 7.71667 227.357 8.11934 227.645 8.42241C227.934 8.72549 228.328 8.90569 228.745 8.92565H225.496C225.277 8.91514 225.057 8.94946 224.851 9.02651C224.645 9.10357 224.456 9.22177 224.297 9.37395C224.138 9.52613 224.011 9.70913 223.924 9.91186C223.838 10.1146 223.793 10.3328 223.793 10.5534C223.793 10.7739 223.838 10.9922 223.924 11.1949C224.011 11.3976 224.138 11.5806 224.297 11.7328C224.456 11.885 224.645 12.0032 224.851 12.0802C225.057 12.1573 225.277 12.1916 225.496 12.1811H244.299C244.519 12.1916 244.739 12.1573 244.945 12.0802C245.151 12.0032 245.34 11.885 245.499 11.7328C245.658 11.5806 245.785 11.3976 245.872 11.1949C245.958 10.9922 246.003 10.7739 246.003 10.5534C246.003 10.3328 245.958 10.1146 245.872 9.91186C245.785 9.70913 245.658 9.52613 245.499 9.37395C245.34 9.22177 245.151 9.10357 244.945 9.02651C244.739 8.94946 244.519 8.91514 244.299 8.92565H247.562C247.98 8.90569 248.373 8.72549 248.662 8.42241C248.95 8.11934 249.111 7.71667 249.111 7.29793C249.111 6.87918 248.95 6.4765 248.662 6.17343C248.373 5.87036 247.98 5.69015 247.562 5.6702Z" fill="#DEE3F3"/>
<path opacity="0.5" d="M138.833 15.1662H137.067C137.235 15.1754 137.403 15.1502 137.561 15.0921C137.719 15.034 137.863 14.9442 137.985 14.8283C138.108 14.7124 138.205 14.5727 138.271 14.4178C138.338 14.2629 138.372 14.096 138.372 13.9273C138.372 13.7587 138.338 13.5918 138.271 13.4369C138.205 13.282 138.108 13.1423 137.985 13.0264C137.863 12.9105 137.719 12.8207 137.561 12.7626C137.403 12.7045 137.235 12.6793 137.067 12.6885H122.758C122.441 12.7058 122.144 12.8439 121.926 13.0743C121.708 13.3048 121.587 13.61 121.587 13.9273C121.587 14.2447 121.708 14.5499 121.926 14.7804C122.144 15.0108 122.441 15.1489 122.758 15.1662H124.524C124.356 15.157 124.188 15.1822 124.03 15.2403C123.872 15.2984 123.727 15.3882 123.605 15.5041C123.483 15.62 123.386 15.7597 123.319 15.9146C123.253 16.0695 123.218 16.2364 123.218 16.4051C123.218 16.5737 123.253 16.7406 123.319 16.8955C123.386 17.0504 123.483 17.1901 123.605 17.306C123.727 17.4219 123.872 17.5117 124.03 17.5698C124.188 17.6279 124.356 17.6531 124.524 17.6439H122.052C121.884 17.6347 121.716 17.6599 121.558 17.718C121.4 17.7761 121.255 17.8659 121.133 17.9818C121.011 18.0977 120.913 18.2374 120.847 18.3923C120.78 18.5472 120.746 18.7141 120.746 18.8828C120.746 19.0514 120.78 19.2183 120.847 19.3732C120.913 19.5281 121.011 19.6678 121.133 19.7837C121.255 19.8996 121.4 19.9894 121.558 20.0475C121.716 20.1056 121.884 20.1308 122.052 20.1216H136.361C136.529 20.1308 136.697 20.1056 136.855 20.0475C137.013 19.9894 137.157 19.8996 137.28 19.7837C137.402 19.6678 137.499 19.5281 137.566 19.3732C137.632 19.2183 137.666 19.0514 137.666 18.8828C137.666 18.7141 137.632 18.5472 137.566 18.3923C137.499 18.2374 137.402 18.0977 137.28 17.9818C137.157 17.8659 137.013 17.7761 136.855 17.718C136.697 17.6599 136.529 17.6347 136.361 17.6439H138.833C139.149 17.6266 139.447 17.4885 139.664 17.2581C139.882 17.0276 140.003 16.7224 140.003 16.4051C140.003 16.0877 139.882 15.7825 139.664 15.552C139.447 15.3216 139.149 15.1835 138.833 15.1662Z" fill="#DEE3F3"/>
<path d="M18.729 190.646C18.729 190.646 25.1962 203.368 19.9264 210.327C14.6566 217.286 20.4068 236.252 20.4068 236.252" stroke="#FFC400" stroke-miterlimit="10"/>
<path d="M20.658 186.668C20.658 189.12 18.8619 191.113 18.8619 191.113C18.8619 191.113 17.0659 189.124 17.0659 186.668C17.0659 184.213 18.8619 182.224 18.8619 182.224C18.8619 182.224 20.658 184.217 20.658 186.668Z" fill="#FFC400"/>
<path d="M22.0808 190.646C22.0808 190.646 15.6136 203.368 20.8834 210.327C26.1532 217.286 20.403 236.252 20.403 236.252" stroke="#FFC400" stroke-miterlimit="10"/>
<path d="M20.1665 186.668C20.1665 189.12 21.9625 191.113 21.9625 191.113C21.9625 191.113 23.7585 189.124 23.7585 186.668C23.7585 184.213 21.9625 182.224 21.9625 182.224C21.9625 182.224 20.1665 184.217 20.1665 186.668Z" fill="#FFC400"/>
<path opacity="0.1" d="M20.1665 186.668C20.1665 189.12 21.9625 191.113 21.9625 191.113C21.9625 191.113 23.7585 189.124 23.7585 186.668C23.7585 184.213 21.9625 182.224 21.9625 182.224C21.9625 182.224 20.1665 184.217 20.1665 186.668Z" fill="black"/>
<path d="M24.7232 190.646C24.7232 190.646 31.1903 203.368 25.9205 210.327C20.6507 217.286 26.401 236.252 26.401 236.252" stroke="#FFC400" stroke-miterlimit="10"/>
<path d="M26.6335 186.668C26.6335 189.12 24.8375 191.113 24.8375 191.113C24.8375 191.113 23.0415 189.124 23.0415 186.668C23.0415 184.213 24.8375 182.224 24.8375 182.224C24.8375 182.224 26.6335 184.217 26.6335 186.668Z" fill="#FFC400"/>
<path d="M25.6249 196.861C23.9287 198.627 21.2568 198.812 21.2568 198.812C21.2568 198.812 21.3381 196.131 23.0344 194.368C24.7306 192.605 27.4025 192.416 27.4025 192.416C27.4025 192.416 27.3101 195.09 25.6249 196.861Z" fill="#FFC400"/>
<path d="M25.7949 205.638C24.0986 207.405 21.4268 207.59 21.4268 207.59C21.4268 207.59 21.5081 204.909 23.2043 203.146C24.9005 201.383 27.5724 201.194 27.5724 201.194C27.5724 201.194 27.4911 203.868 25.7949 205.638Z" fill="#FFC400"/>
<path d="M16.5927 210.464C18.1966 212.316 18.1411 214.997 18.1411 214.997C18.1411 214.997 15.484 214.675 13.8802 212.823C12.2763 210.971 12.3318 208.29 12.3318 208.29C12.3318 208.29 14.9888 208.612 16.5927 210.464Z" fill="#FFC400"/>
<path d="M18.0712 191.757C20.1111 193.113 20.7726 195.713 20.7726 195.713C20.7726 195.713 18.1266 196.116 16.0867 194.761C14.0468 193.405 13.3853 190.805 13.3853 190.805C13.3853 190.805 16.0423 190.394 18.0712 191.757Z" fill="#FFC400"/>
<path opacity="0.1" d="M18.0712 191.757C20.1111 193.113 20.7726 195.713 20.7726 195.713C20.7726 195.713 18.1266 196.116 16.0867 194.761C14.0468 193.405 13.3853 190.805 13.3853 190.805C13.3853 190.805 16.0423 190.394 18.0712 191.757Z" fill="black"/>
<path d="M28.0676 190.646C28.0676 190.646 21.6004 203.368 26.8702 210.327C32.14 217.286 26.3898 236.252 26.3898 236.252" stroke="#FFC400" stroke-miterlimit="10"/>
<path d="M26.1533 186.668C26.1533 189.12 27.9493 191.113 27.9493 191.113C27.9493 191.113 29.7454 189.124 29.7454 186.668C29.7454 184.213 27.9493 182.224 27.9493 182.224C27.9493 182.224 26.1533 184.217 26.1533 186.668Z" fill="#FFC400"/>
<path opacity="0.1" d="M26.1533 186.668C26.1533 189.12 27.9493 191.113 27.9493 191.113C27.9493 191.113 29.7454 189.124 29.7454 186.668C29.7454 184.213 27.9493 182.224 27.9493 182.224C27.9493 182.224 26.1533 184.217 26.1533 186.668Z" fill="black"/>
<path d="M26.6705 197.05C24.9521 198.798 24.8228 201.494 24.8228 201.494C24.8228 201.494 27.4946 201.342 29.213 199.594C30.9314 197.846 31.0608 195.15 31.0608 195.15C31.0608 195.15 28.3889 195.301 26.6705 197.05Z" fill="#FFC400"/>
<path opacity="0.1" d="M26.6705 197.05C24.9521 198.798 24.8228 201.494 24.8228 201.494C24.8228 201.494 27.4946 201.342 29.213 199.594C30.9314 197.846 31.0608 195.15 31.0608 195.15C31.0608 195.15 28.3889 195.301 26.6705 197.05Z" fill="black"/>
<path d="M30.0372 209.201C28.3188 210.949 28.1895 213.645 28.1895 213.645C28.1895 213.645 30.8613 213.494 32.5797 211.745C34.2981 209.997 34.4275 207.301 34.4275 207.301C34.4275 207.301 31.7445 207.453 30.0372 209.201Z" fill="#FFC400"/>
<path d="M25.0928 206.531C25.0928 206.531 28.9842 200.383 34.4498 200.235" stroke="#FFC400" stroke-miterlimit="10"/>
<path d="M22.0509 202.816C22.0509 202.816 18.1595 196.668 12.6938 196.52" stroke="#FFC400" stroke-miterlimit="10"/>
<path d="M21.5449 211.594C21.5449 211.594 25.4363 205.446 30.902 205.297" stroke="#FFC400" stroke-miterlimit="10"/>
<path d="M34.2613 201.212C34.8185 201.212 35.2702 200.76 35.2702 200.201C35.2702 199.643 34.8185 199.19 34.2613 199.19C33.7041 199.19 33.2524 199.643 33.2524 200.201C33.2524 200.76 33.7041 201.212 34.2613 201.212Z" fill="#FFC400"/>
<path d="M12.7901 197.583C13.3473 197.583 13.799 197.13 13.799 196.572C13.799 196.013 13.3473 195.561 12.7901 195.561C12.2329 195.561 11.7812 196.013 11.7812 196.572C11.7812 197.13 12.2329 197.583 12.7901 197.583Z" fill="#FFC400"/>
<path d="M24.4088 213.608C24.4088 213.608 20.5174 207.46 15.0518 207.312" stroke="#FFC400" stroke-miterlimit="10"/>
<path d="M15.148 208.383C15.7052 208.383 16.1569 207.93 16.1569 207.371C16.1569 206.813 15.7052 206.36 15.148 206.36C14.5908 206.36 14.1392 206.813 14.1392 207.371C14.1392 207.93 14.5908 208.383 15.148 208.383Z" fill="#FFC400"/>
<path d="M30.9757 206.36C31.5329 206.36 31.9846 205.908 31.9846 205.349C31.9846 204.791 31.5329 204.338 30.9757 204.338C30.4185 204.338 29.9668 204.791 29.9668 205.349C29.9668 205.908 30.4185 206.36 30.9757 206.36Z" fill="#FFC400"/>
<path d="M45.9278 228.849C45.9278 228.849 36.5486 226.967 34.0431 224.46C31.5375 221.953 20.2884 217.568 19.0356 220.701C17.7828 223.834 2.15077 234.489 12.7828 236.371C23.4148 238.252 37.7977 238.878 40.9241 237.622C44.0505 236.367 45.9278 228.849 45.9278 228.849Z" fill="#A8A8A8"/>
<path opacity="0.2" d="M12.7829 235.204C23.4149 237.085 37.7978 237.711 40.9242 236.456C43.3041 235.5 44.9597 230.9 45.6138 228.782L45.9279 228.849C45.9279 228.849 44.0506 236.371 40.9242 237.622C37.7978 238.874 23.4149 238.248 12.7829 236.371C9.71559 235.826 8.83606 234.552 9.16865 232.941C9.42734 233.978 10.499 234.8 12.7829 235.204Z" fill="black"/>
<path d="M330.686 193.527C330.686 193.527 333.782 197.601 329.255 203.712C324.728 209.823 320.996 215.012 322.507 218.834C322.507 218.834 329.337 207.453 334.895 207.294C340.453 207.134 336.802 200.368 330.686 193.527Z" fill="#FFC400"/>
<path opacity="0.1" d="M330.686 193.527C330.956 193.92 331.168 194.349 331.318 194.801C336.743 201.186 339.629 207.146 334.418 207.297C329.562 207.438 323.738 216.138 322.341 218.338C322.387 218.507 322.443 218.674 322.508 218.838C322.508 218.838 329.337 207.457 334.895 207.297C340.453 207.138 336.802 200.368 330.686 193.527Z" fill="black"/>
<path d="M336.443 198.698C336.443 200.127 336.284 201.29 336.074 201.29C335.863 201.29 335.704 200.131 335.704 198.698C335.704 197.264 335.904 197.957 336.1 197.957C336.295 197.957 336.443 197.272 336.443 198.698Z" fill="#FFD037"/>
<path d="M338.421 200.405C337.168 201.09 336.078 201.516 335.985 201.327C335.893 201.138 336.828 200.457 338.081 199.775C339.333 199.094 338.838 199.59 338.934 199.775C339.03 199.961 339.67 199.72 338.421 200.405Z" fill="#FFD037"/>
<path d="M314.329 193.527C314.329 193.527 311.232 197.601 315.759 203.712C320.286 209.823 324.019 215.012 322.507 218.834C322.507 218.834 315.678 207.453 310.12 207.294C304.562 207.134 308.213 200.368 314.329 193.527Z" fill="#FFC400"/>
<path opacity="0.1" d="M314.329 193.527C314.059 193.92 313.847 194.349 313.697 194.801C308.272 201.186 305.386 207.146 310.597 207.297C315.453 207.438 321.277 216.138 322.674 218.338C322.628 218.507 322.572 218.674 322.507 218.838C322.507 218.838 315.678 207.457 310.12 207.297C304.562 207.138 308.213 200.368 314.329 193.527Z" fill="black"/>
<path d="M308.572 198.698C308.572 200.127 308.731 201.29 308.941 201.29C309.152 201.29 309.311 200.131 309.311 198.698C309.311 197.264 309.111 197.957 308.915 197.957C308.72 197.957 308.572 197.272 308.572 198.698Z" fill="#FFD037"/>
<path d="M306.595 200.405C307.848 201.09 308.938 201.516 309.03 201.327C309.123 201.138 308.188 200.457 306.935 199.775C305.682 199.094 306.177 199.59 306.081 199.775C305.985 199.961 305.342 199.72 306.595 200.405Z" fill="#FFD037"/>
<path d="M309.559 218.301C309.559 218.301 318.217 218.034 320.826 216.171C323.435 214.308 334.13 212.097 334.792 215.06C335.453 218.023 347.804 229.915 338.029 229.993C328.254 230.071 315.316 228.467 312.711 226.878C310.106 225.29 309.559 218.301 309.559 218.301Z" fill="#A8A8A8"/>
<path opacity="0.2" d="M338.203 228.967C328.428 229.045 315.49 227.441 312.885 225.852C310.9 224.641 310.109 220.297 309.847 218.293H309.559C309.559 218.293 310.106 225.293 312.711 226.882C315.316 228.471 328.254 230.078 338.029 229.997C340.852 229.975 341.824 228.967 341.772 227.478C341.381 228.386 340.32 228.949 338.203 228.967Z" fill="black"/>
<path opacity="0.5" d="M65.7213 27.6436H63.4005C63.6203 27.6541 63.8399 27.6198 64.0461 27.5427C64.2523 27.4657 64.4407 27.3475 64.6 27.1953C64.7593 27.0431 64.8861 26.8601 64.9727 26.6574C65.0593 26.4547 65.104 26.2364 65.104 26.0159C65.104 25.7953 65.0593 25.5771 64.9727 25.3744C64.8861 25.1716 64.7593 24.9886 64.6 24.8364C64.4407 24.6843 64.2523 24.5661 64.0461 24.489C63.8399 24.4119 63.6203 24.3776 63.4005 24.3881H44.5977C44.1803 24.4081 43.7867 24.5883 43.4983 24.8914C43.21 25.1945 43.0492 25.5971 43.0492 26.0159C43.0492 26.4346 43.21 26.8373 43.4983 27.1404C43.7867 27.4434 44.1803 27.6236 44.5977 27.6436H46.9185C46.5011 27.6636 46.1074 27.8438 45.8191 28.1468C45.5308 28.4499 45.3699 28.8526 45.3699 29.2713C45.3699 29.6901 45.5308 30.0927 45.8191 30.3958C46.1074 30.6989 46.5011 30.8791 46.9185 30.8991H43.6701C43.2528 30.919 42.8591 31.0992 42.5708 31.4023C42.2824 31.7054 42.1216 32.108 42.1216 32.5268C42.1216 32.9455 42.2824 33.3482 42.5708 33.6513C42.8591 33.9544 43.2528 34.1346 43.6701 34.1545H62.4729C62.6927 34.165 62.9124 34.1307 63.1185 34.0537C63.3247 33.9766 63.5132 33.8584 63.6724 33.7062C63.8317 33.554 63.9585 33.371 64.0451 33.1683C64.1318 32.9656 64.1764 32.7473 64.1764 32.5268C64.1764 32.3062 64.1318 32.088 64.0451 31.8853C63.9585 31.6825 63.8317 31.4995 63.6724 31.3474C63.5132 31.1952 63.3247 31.077 63.1185 30.9999C62.9124 30.9229 62.6927 30.8885 62.4729 30.8991H65.7213C66.1386 30.8791 66.5323 30.6989 66.8206 30.3958C67.109 30.0927 67.2698 29.6901 67.2698 29.2713C67.2698 28.8526 67.109 28.4499 66.8206 28.1468C66.5323 27.8438 66.1386 27.6636 65.7213 27.6436Z" fill="#DEE3F3"/>
</g>
<defs>
<linearGradient id="paint0_linear" x1="170.178" y1="201.387" x2="170.178" y2="48.0578" gradientUnits="userSpaceOnUse">
<stop stop-color="#808080" stop-opacity="0.25"/>
<stop offset="0.54" stop-color="#808080" stop-opacity="0.12"/>
<stop offset="1" stop-color="#808080" stop-opacity="0.1"/>
</linearGradient>
<linearGradient id="paint1_linear" x1="141.716" y1="175.444" x2="141.716" y2="175.427" gradientUnits="userSpaceOnUse">
<stop stop-color="#808080" stop-opacity="0.25"/>
<stop offset="0.54" stop-color="#808080" stop-opacity="0.12"/>
<stop offset="1" stop-color="#808080" stop-opacity="0.1"/>
</linearGradient>
<linearGradient id="paint2_linear" x1="23797.5" y1="74886.2" x2="23797.5" y2="33575.1" gradientUnits="userSpaceOnUse">
<stop stop-color="#808080" stop-opacity="0.25"/>
<stop offset="0.54" stop-color="#808080" stop-opacity="0.12"/>
<stop offset="1" stop-color="#808080" stop-opacity="0.1"/>
</linearGradient>
<linearGradient id="paint3_linear" x1="67037.4" y1="90776.6" x2="67037.4" y2="29423.3" gradientUnits="userSpaceOnUse">
<stop stop-color="#808080" stop-opacity="0.25"/>
<stop offset="0.54" stop-color="#808080" stop-opacity="0.12"/>
<stop offset="1" stop-color="#808080" stop-opacity="0.1"/>
</linearGradient>
<clipPath id="clip0">
<rect width="351" height="245" fill="white"/>
</clipPath>
</defs>
</svg>